<svg width="254" height="202" viewBox="0 0 254 202" fill="none" xmlns="http://www.w3.org/2000/svg">
<path d="M239.575 102.74C243.947 101.196 248.188 98.1995 246.636 94.11C245.228 90.4 240.551 89.8882 236.173 90.4238C236.149 90.3458 236.13 90.2677 236.106 90.1896C240.029 88.5482 243.429 85.7315 242.015 82.0041C240.588 78.242 235.805 77.7758 231.373 78.3461C234.352 76.2319 236.384 73.3415 234.562 70.2581C232.591 66.9188 228.148 66.9232 224.037 67.9249C224.018 67.8989 223.994 67.8751 223.974 67.8491C226.184 65.4921 227.309 62.6558 225.182 60.069C223.209 57.6708 220.06 57.5363 216.907 58.3083C218.792 55.6586 219.516 52.638 216.925 50.3049C213.85 47.5381 209.429 48.7849 205.751 50.8752C205.489 50.6887 205.235 50.4979 204.968 50.3136C206.064 47.6768 206.007 44.9534 203.308 43.1493C200.881 41.5295 198.136 41.8938 195.582 43.1081C196.295 40.7121 195.976 38.3377 193.468 36.8481C190.471 35.0678 187.19 36.2756 184.443 38.2878C184.853 35.7162 184.196 33.2638 181.346 32.0625C178.009 30.6553 174.904 32.3704 172.493 34.7903C172.265 34.7209 172.033 34.6559 171.806 34.5886C172.573 31.0889 172.023 27.3073 167.994 26.2079C163.924 25.0977 160.829 28.0077 158.832 31.2602C159.392 27.3442 158.496 22.7689 153.791 22.1227C149.576 21.5438 146.991 24.8115 145.556 28.2787C145.46 24.3388 143.808 19.9327 139.04 19.8915C134.766 19.8568 132.751 23.4129 131.906 27.0211C131.153 23.1419 128.785 18.9982 124.054 19.5641C122.558 19.7441 121.437 20.3512 120.572 21.1947C119.056 19.0437 116.812 17.5866 113.715 18.1113C111.374 18.5081 109.947 19.8351 109.092 21.5547C107.173 19.163 104.457 17.5562 101.087 18.5862C98.0144 19.5272 96.8911 21.9428 96.7177 24.6467C94.2978 21.7368 90.7742 19.5684 86.9492 21.3161C82.9139 23.1614 83.0657 27.3528 84.3451 31.0803C81.4091 27.8017 76.7992 24.9893 72.6793 27.5957C68.9887 29.931 69.8366 34.0552 71.7252 37.5723C68.271 34.7079 63.2361 32.5157 59.5889 35.6143C56.3212 38.3919 57.8477 42.3557 60.3045 45.593C56.4036 43.2013 51.0521 41.677 47.9535 45.2028C47.5957 45.6082 47.3442 46.0267 47.1404 46.4474C43.2916 45.0184 39.1175 44.7756 36.7453 47.833C34.0804 51.2676 36.6521 55.149 40.0694 58.15C35.1559 56.1269 28.5966 55.2032 26.155 59.6115C25.073 61.563 25.4416 63.4495 26.5844 65.1711C22.213 64.6356 17.7787 65.3489 16.4451 69.0373C14.717 73.8164 20.5629 77.2857 25.7452 79.17C20.1487 77.9861 11.7853 78.2333 10.7706 83.7084C9.92056 88.2923 15.3393 90.9312 20.4761 92.2496C20.4523 92.3211 20.4262 92.3927 20.4024 92.4664C14.7907 92.2908 7.67848 93.7826 7.59175 98.9238C7.52019 103.211 12.4836 105.175 17.4296 105.96C17.4122 106.138 17.3992 106.316 17.3819 106.493C12.0716 107.244 6.26038 109.633 6.97377 114.36C7.39443 117.136 9.78612 118.649 12.7936 119.413C9.16597 121.254 6.43167 124.02 7.77822 127.477C8.9448 130.471 12.245 131.432 15.8922 131.458C13.1211 133.622 11.4319 136.389 13.1124 139.325C14.4221 141.614 16.9265 142.406 19.7497 142.423C18.8238 144.229 18.7241 146.138 20.1422 147.942C21.2177 149.312 22.716 149.954 24.3835 150.19C23.0153 151.955 22.51 153.931 23.9542 155.767C25.6715 157.955 28.6595 157.99 31.6258 157.207C29.8543 159.408 29.13 161.938 31.0447 164.263C33.0114 166.655 36.1468 166.795 39.2888 166.03C38.532 168.023 38.6816 170.052 40.5421 171.728C43.027 173.964 46.3901 173.561 49.5321 172.227C48.3222 174.944 48.2918 177.791 51.0825 179.656C53.9317 181.56 57.2211 180.727 60.1223 178.99C60.1418 180.591 60.8249 182.056 62.5704 183.093C65.4001 184.773 68.4835 183.793 71.1333 181.987C69.971 185.235 70.0621 188.78 73.6854 190.307C77.5646 191.942 81.1424 189.375 83.6598 186.363C83.7357 186.387 83.8116 186.406 83.8875 186.43C83.8441 189.119 84.8828 191.578 87.9987 192.428C91.1624 193.291 93.7297 191.703 95.6595 189.435C96.1127 189.531 96.5637 189.633 97.0191 189.724C97.1036 192.935 98.422 195.995 102.204 196.513C105.881 197.018 108.301 194.585 109.819 191.658C110.057 191.684 110.298 191.703 110.537 191.727C110.959 195.253 112.735 198.709 116.955 198.744C120.886 198.777 122.89 195.763 123.848 192.473C123.913 192.473 123.976 192.475 124.041 192.477C124.67 196.5 127.04 201.066 131.993 200.472C135.984 199.993 137.45 196.619 137.81 193.163C139.024 197.187 141.971 201.344 146.902 200.364C151.855 199.377 152.627 194.377 152.178 190.129C152.319 190.103 152.464 190.084 152.605 190.058C153.85 194.438 157.518 199.954 163.108 198.343C167.922 196.955 168.158 191.946 167.263 187.764C170.125 191.363 175.162 194.897 179.625 192.072C183.213 189.802 182.511 185.836 180.735 182.384C184.193 185.339 189.374 187.696 193.101 184.528C195.755 182.275 195.246 179.233 193.648 176.436C197.308 178.244 201.694 178.984 204.379 175.926C205.508 174.643 205.816 173.262 205.589 171.882C208.824 173.706 212.642 174.498 215.461 171.952C217.81 169.829 217.502 167.123 216.14 164.575C220.641 165.95 225.726 166.082 227.812 162.318C229.848 158.642 226.78 155.186 222.977 152.666C227.717 153.499 232.893 153.022 234.352 148.985C235.518 145.756 233.224 143.128 230.022 141.179C230.206 140.86 230.386 140.539 230.566 140.218C235.18 140.3 239.794 139.08 240.532 135.105C241.098 132.045 238.871 129.849 235.8 128.335C235.965 127.834 236.141 127.336 236.293 126.83C240.363 126.141 243.932 124.326 243.992 120.694C244.038 117.945 242.013 116.149 239.25 115.006C243.242 113.82 246.581 111.565 246.031 107.916C245.582 104.954 242.871 103.447 239.575 102.74ZM98.0924 32.056C98.1119 32.0929 98.1293 32.1254 98.1466 32.1601C97.9927 32.1948 97.8344 32.223 97.6804 32.2577C97.8214 32.1861 97.9536 32.1232 98.0924 32.056Z" fill="white"/>
<path d="M239.561 102.739C243.932 101.196 248.173 98.1989 246.621 94.1094C245.214 90.3993 240.536 89.8876 236.159 90.4232C236.135 90.3451 236.115 90.267 236.091 90.189C239.888 88.6017 243.156 85.9021 242.08 82.3482C237.919 81.8581 233.737 81.4982 229.699 80.7805C218.265 65.4177 191.735 59.4742 174.705 67.0222C174.206 67.2434 174.07 67.6229 174.068 68.0132C173.86 68.05 173.645 68.0674 173.452 68.165C173.055 68.3645 173.012 68.848 173.339 69.1342C175.109 70.6889 177.24 71.8143 178.775 73.6379C180.699 75.919 180.618 78.3758 180.109 81.2336C179.879 82.526 181.128 83.2112 182.119 83.0226C182.318 83.0638 182.526 83.0768 182.745 83.0117C186.078 82.036 191.425 84.742 192.631 87.8883C192.837 88.4283 193.221 88.7579 193.657 88.9248C194.03 89.1243 194.47 89.1633 194.886 88.992C195.025 88.9573 195.146 88.888 195.27 88.8251C195.862 88.4933 197.657 88.5562 198.403 88.554C199.86 88.5497 201.291 88.8186 202.625 89.417C204.39 90.2085 204.464 90.7723 204.776 92.5026C204.913 93.2615 205.019 93.6995 205.55 94.2937C206.261 95.0873 207.686 95.2933 208.384 94.3977C209.989 94.5777 211.84 95.818 212.79 96.7678C214.482 98.4591 214.924 100.701 213.731 102.798C213.228 103.683 213.632 104.481 214.304 104.94C214.403 105.224 214.579 105.489 214.863 105.675C219.952 109.051 220.267 112.137 218.53 117.705C217.647 120.539 216.945 123.15 216.544 125.897C216.257 126.379 216.129 126.966 216.303 127.489C215.201 129.219 214.102 130.95 213.001 132.68C211.875 133.159 211.201 134.172 211.535 135.425C213.649 143.357 209.421 144.521 205.04 144.992C203.681 145.139 202.955 146.215 202.931 147.258C202.818 147.462 202.716 147.679 202.729 147.967C202.874 151.269 202.445 154.181 199.518 156.222C197.208 157.833 194.225 158.232 191.48 157.989C189.977 157.857 189.047 159.021 188.904 160.184C188.654 160.429 188.496 160.769 188.502 161.209C188.602 167.606 179.723 172.951 174.105 173.725C173.33 173.831 172.905 174.282 172.723 174.824C172.307 174.98 171.923 175.301 171.663 175.833C167.658 183.97 162.788 190.861 156.109 196.33C157.894 198.123 160.24 199.168 163.094 198.344C167.907 196.959 168.144 191.948 167.246 187.765C170.108 191.364 175.145 194.899 179.61 192.074C183.199 189.803 182.496 185.837 180.72 182.385C184.179 185.341 189.359 187.698 193.086 184.53C195.74 182.277 195.231 179.235 193.633 176.437C197.293 178.246 201.68 178.985 204.364 175.928C205.494 174.642 205.802 173.263 205.574 171.884C208.809 173.708 212.628 174.499 215.446 171.953C217.795 169.831 217.487 167.124 216.125 164.577C220.627 165.951 225.711 166.084 227.797 162.319C229.833 158.644 226.765 155.188 222.962 152.668C227.702 153.501 232.878 153.024 234.335 148.986C235.502 145.757 233.207 143.129 230.005 141.18C230.189 140.861 230.369 140.54 230.549 140.217C235.163 140.3 239.778 139.079 240.515 135.104C241.081 132.045 238.854 129.848 235.783 128.335C235.948 127.834 236.124 127.335 236.276 126.83C240.346 126.14 243.915 124.325 243.975 120.693C244.021 117.944 241.996 116.149 239.233 115.006C243.225 113.82 246.565 111.565 246.014 107.915C245.567 104.953 242.857 103.446 239.561 102.739Z" fill="#E0E0E0"/>
<path d="M165.316 161.697C164.466 159.108 161.921 157.998 159.733 159.809C158.582 160.763 157.588 162.083 156.775 163.521C155.62 165.039 155.16 166.903 154.538 168.785C153.909 170.681 154.689 173.38 156.966 173.742C159.314 174.115 161.784 171.672 163.001 169.969C164.679 167.615 166.29 164.663 165.316 161.697Z" fill="#E0E0E0"/>
<path d="M45.8553 126.646C43.5633 126.143 42.1214 128.242 41.8677 130.258C41.7202 131.44 41.8872 132.676 42.1452 133.919C42.3382 136.163 42.98 138.585 44.1575 140.547C44.1661 140.571 44.1748 140.599 44.1835 140.625C44.3071 141.024 44.5543 141.319 44.8492 141.534C45.8965 142.88 47.2322 143.908 48.9604 144.236C49.8667 144.407 50.5801 143.743 50.8013 142.924C51.9766 138.561 51.8031 127.951 45.8553 126.646Z" fill="#E0E0E0"/>
<path d="M70.4245 97.2333C69.6547 95.2601 67.3541 95.5897 65.6736 95.9779C63.2797 96.5308 60.9813 97.6106 59.0449 99.1241C57.7808 100.113 55.2568 102.008 55.8162 103.819C55.8184 103.823 55.8227 103.827 55.8249 103.832C54.8947 104.996 54.5109 106.442 55.8206 107.748C57.5271 109.452 60.2072 108.502 62.098 107.704C64.7997 106.564 67.0592 104.836 68.7982 102.489C69.8303 101.091 71.1443 99.0764 70.4245 97.2333Z" fill="#E0E0E0"/>
<path d="M113.686 162.327C112.042 160.697 109.599 161.247 108.838 163.44C108.64 164.006 108.512 164.689 108.432 165.413C106.578 168.145 108.831 174.47 112.246 174.329C114.497 174.236 115.154 172.018 115.343 170.136C115.594 167.583 115.666 164.292 113.686 162.327Z" fill="#E0E0E0"/>
<path d="M190.019 94.2954C187.289 94.5491 183.056 94.6944 181.003 96.8367C180.955 96.8866 180.94 96.9582 180.894 97.0102C177.831 98.45 176.647 102.96 180.881 104.335C183.64 105.23 187.408 103.628 190.025 102.745C192.231 102.002 194.382 100.597 194.455 98.0293C194.533 95.3709 192.469 94.0656 190.019 94.2954Z" fill="#E0E0E0"/>
<path d="M85.0666 140.575C82.7985 137.85 80.9251 139.795 79.6197 142.761C79.3899 142.826 79.173 142.974 79.0061 143.256C77.5316 145.745 76.3715 149.715 76.6512 152.636C76.8746 154.967 78.4011 157.343 81.04 156.194C83.6442 155.06 84.6286 150.869 85.3485 148.455C86.025 146.196 86.7579 142.605 85.0666 140.575Z" fill="#E0E0E0"/>
<path d="M251.044 96.59C253.958 79.4904 250.038 64.6371 242.672 49.1854C242.646 48.9252 242.572 48.6607 242.381 48.394C242.325 48.3138 242.262 48.2444 242.203 48.1641C242.188 48.1338 242.177 48.1034 242.162 48.073C242.14 48.0275 242.093 48.0254 242.067 47.9863C226.793 27.0378 202.347 19.2318 179.002 10.1377C155.044 0.807229 131.966 1.09129 106.772 4.37201C81.3156 7.68743 55.2932 12.5879 33.5446 27.0595C18.9407 36.7781 3.89016 52.5334 2.97294 70.8972C2.66937 70.9817 2.40049 71.2116 2.44169 71.5759C2.56312 72.6535 2.76261 73.7594 3.00113 74.8718C3.03799 75.4529 3.03582 76.0275 3.10304 76.6151C3.14641 76.9946 3.35674 77.1984 3.60827 77.322C7.61756 91.3144 20.1767 106.209 35.4723 103.535C44.8157 101.902 52.9297 94.4672 60.9916 89.97C73.2775 83.118 86.3354 77.6972 99.8724 73.8678C126.858 66.2352 155.673 65.4264 182.92 72.2351C196 75.5028 208.691 80.477 220.414 87.1447C229.803 92.4853 238.211 98.7736 249.237 99.8252C250.981 99.9922 251.599 98.0688 250.92 96.9023C250.957 96.796 251.022 96.7136 251.044 96.59Z" fill="#FC6551"/>
<path d="M65.34 87.706C63.8178 83.881 61.3567 80.0712 59.802 77.9137C54.1903 70.125 46.6943 66.7271 38.2941 62.6463C30.269 58.7476 26.366 53.2877 23.8832 44.7682C23.237 42.5478 22.6776 39.2367 21.2552 36.8125C15.4201 42.3158 10.2811 48.7363 6.9375 55.8138C7.47525 57.9475 8.40331 60.0486 9.82575 62.0522C15.277 69.7346 24.0502 69.8409 32.2032 72.8484C40.4776 75.9015 45.2285 80.7564 49.6476 88.1093C50.851 90.1129 52.1217 92.5241 53.6808 94.5797C56.1397 92.9382 58.5682 91.3206 60.9881 89.9719C62.4192 89.174 63.8915 88.4628 65.34 87.706Z" fill="#FF9A92"/>
<path d="M30.2422 29.3664C32.4626 39.356 49.2175 43.9594 57.3315 47.6088C68.7891 52.7608 75.7668 63.5332 78.6204 75.4375C79.0606 77.2741 79.4162 79.102 79.852 80.8345C83.4818 79.3275 87.168 77.9636 90.8889 76.6973C90.2319 61.1892 82.2025 47.3746 67.835 39.3344C64.164 37.2788 59.6863 35.5094 57.1667 31.9468C53.6539 26.9791 55.6922 25.4829 53.8686 21.3131C53.2354 19.8625 52.6109 18.5333 51.8607 17.3516C45.5096 20.01 39.3666 23.1823 33.5359 27.0615C32.4409 27.79 31.3415 28.5663 30.2422 29.3664Z" fill="#FF9A92"/>
<path d="M121.057 66.2657C121.575 57.9002 118.58 50.0443 114.649 42.8085C111.737 37.4483 108.192 32.4632 105.212 27.1421C101.567 20.6305 100.748 13.5552 97.8443 6.94169C97.6426 6.48417 97.3846 6.11556 97.1439 5.71875C89.7867 6.82678 82.4381 8.16248 75.2023 9.89066C74.5409 12.3929 74.4694 15.0795 75.1502 17.7987C76.8589 24.629 83.0431 28.4951 88.3252 32.3917C100.698 41.5226 107.697 52.4273 108.294 68.0416C108.328 68.9675 108.322 70.3011 108.402 71.7495C112.481 70.8236 116.583 70.0192 120.716 69.4034C120.9 68.1761 121.007 67.0724 121.057 66.2657Z" fill="#FF9A92"/>
<path d="M137.376 67.8519C141.435 67.6654 145.494 67.6091 149.556 67.7283C155.826 50.5962 138.23 29.5631 139.895 13.2853C140.253 9.78337 140.824 5.97572 140.442 2.40877C132.582 2.12255 124.641 2.47816 116.514 3.2631C115.61 6.19255 115.256 9.2326 115.718 11.9626C116.423 16.1301 119.376 19.5561 121.738 22.8867C125.825 28.6502 130.04 34.3747 133.117 40.7627C137.233 49.3082 138.423 57.4438 137.508 66.848C137.473 67.1841 137.426 67.5202 137.376 67.8519Z" fill="#FF9A92"/>
<path d="M181.132 10.9608C180.421 10.6876 179.71 10.4143 178.999 10.1368C173.19 7.87519 167.433 6.18823 161.684 4.96094C160.368 6.63924 159.353 8.54737 158.781 10.668C156.827 17.9125 161.645 23.9124 164.668 30.0119C167.999 36.7338 170.145 44.2732 169.61 51.8538C169.209 57.5544 166.747 61.7827 164.874 66.8892C164.649 67.5028 164.475 68.1685 164.332 68.8494C168.513 69.3654 172.669 70.0766 176.802 70.9331C179.933 61.8326 179.313 46.396 178.418 42.3781C176.579 34.1492 174.911 27.6571 178.099 19.5171C179.231 16.6354 180.536 13.9141 181.132 10.9608Z" fill="#FF9A92"/>
<path d="M195.934 23.1253C195.655 35.396 205.629 44.3904 200.065 57.0753C198.56 60.5056 191.16 67.9669 189.492 74.1055C194.07 75.4673 198.593 76.9981 203.023 78.7848C208.58 73.0994 212.67 62.3509 213.721 57.9751C216.107 48.0592 214.363 34.5157 210.497 23.0841C206.137 20.9461 201.644 19.0011 197.086 17.1602C196.375 18.9512 195.984 20.9418 195.934 23.1253Z" fill="#FF9A92"/>
<path d="M242.378 48.3938C242.322 48.3135 242.259 48.2441 242.2 48.1639C242.185 48.1336 242.174 48.1032 242.159 48.0728C242.137 48.0273 242.09 48.0251 242.064 47.9861C237.419 41.6176 231.92 36.4743 225.868 32.1289C225.74 34.4447 225.946 36.8689 226.397 39.3734C228.635 51.8089 233.043 61.9026 225.977 73.7201C224.873 75.5654 220.541 80.8692 218.125 85.9519C218.88 86.3638 219.665 86.7216 220.413 87.1466C223.594 88.9572 226.664 90.8653 229.76 92.6521C231.736 90.4338 233.425 87.8817 234.672 86.3053C239.143 80.648 242.666 74.6959 244.108 67.5512C244.889 63.6807 245.24 59.2659 245.141 54.6863C244.366 52.8584 243.547 51.0261 242.669 49.1874C242.645 48.925 242.571 48.6605 242.378 48.3938Z" fill="#FF9A92"/>
<g opacity="0.53">
<path d="M198.609 62.9411C177.778 57.1992 156.01 54.3934 134.4 55.2716C111.381 56.2061 88.1251 61.2302 67.3783 71.4367C51.7596 79.1213 25.8803 94.7573 8.07812 87.6083C14.0129 97.6174 23.9678 105.547 35.4731 103.537C44.8166 101.904 52.9306 94.4689 60.9925 89.9718C73.2784 83.1198 86.3363 77.6989 99.8733 73.8696C126.858 66.2369 155.674 65.4281 182.921 72.2368C196.001 75.5045 208.692 80.4787 220.414 87.1464C229.803 92.4871 238.212 98.7753 249.238 99.827C250.982 99.9939 251.6 98.0706 250.921 96.904C250.958 96.7934 251.021 96.711 251.042 96.5874C252.157 90.0498 252.259 83.8462 251.565 77.8051C245.439 76.8055 238.856 76.7556 233.251 74.919C221.613 71.1092 210.444 66.2023 198.609 62.9411Z" fill="#D34237"/>
</g>
<path d="M131.106 202.002C127.392 202.002 124.983 199.506 123.66 196.473C122.062 198.942 119.583 200.321 116.934 200.222C113.445 200.196 110.851 198.151 109.665 194.627C107.625 197.234 104.995 198.407 101.996 197.975C98.5416 197.5 96.3126 195.18 95.7054 191.52C93.2573 193.836 90.4818 194.658 87.6044 193.851C85.1889 193.194 83.5323 191.611 82.8145 189.356C79.6509 192.177 76.2704 192.999 73.1112 191.667C70.2251 190.451 68.8048 187.975 69.026 184.776C66.4218 185.778 63.9759 185.644 61.8162 184.36C60.474 183.564 59.5416 182.495 59.0537 181.207C55.773 182.651 52.7655 182.556 50.2632 180.882C48.0103 179.377 47.0128 177.129 47.3533 174.496C43.5131 175.374 41.0347 174.156 39.5537 172.831C38.0358 171.463 37.3073 169.748 37.4027 167.855C33.3934 168.236 31.1426 166.703 29.9067 165.207C28.4105 163.383 28.0527 161.297 28.8246 159.138C25.6415 159.324 23.8027 157.969 22.7944 156.683C21.4826 155.014 21.2593 153.09 22.1114 151.134C20.8386 150.649 19.7891 149.888 18.9825 148.855C17.766 147.307 17.3432 145.573 17.7205 143.753C14.984 143.352 13.0087 142.114 11.8356 140.065C10.9639 138.541 10.1313 135.789 12.6097 132.623C8.75001 131.858 7.10206 129.8 6.40818 128.022C5.24377 125.034 6.35831 122.117 9.47424 119.752C6.69658 118.299 5.76635 116.239 5.51916 114.589C5.25679 112.869 5.65359 111.287 6.69224 109.892C8.02578 108.099 10.1855 106.941 12.3365 106.189C8.23611 104.649 6.06342 102.145 6.11762 98.9074C6.14798 97.0881 6.89823 94.7159 10.0077 93.0116C6.60117 88.6402 3.91457 83.4643 2.33818 78.2104C1.94788 77.8396 1.70719 77.3496 1.64431 76.7771C1.5966 76.3695 1.57925 75.9618 1.56407 75.552L1.53589 74.9644C1.31689 74.019 1.10872 72.8632 0.982957 71.7379C0.909233 71.1069 1.12606 70.5128 1.54889 70.0813C1.898 65.1699 3.26406 60.1632 5.61456 55.1846C12.3885 40.8431 25.5114 30.6432 32.7299 25.8381C34.1761 24.8732 35.6485 23.9582 37.1338 23.0735L37.8927 22.6441C39.1634 21.9026 40.4449 21.1826 41.7415 20.4953C41.7437 20.4953 42.1904 20.2654 42.1926 20.2633C43.6172 19.5195 45.0504 18.8061 46.4989 18.1253C54.9512 14.1572 64.197 11.0087 74.8588 8.45873C78.3282 7.62825 81.9841 6.85416 85.7201 6.15161C92.1038 4.95902 98.6479 3.9464 106.582 2.91426C112.113 2.19437 117.172 1.67396 122.047 1.32486L122.979 1.26196C124.774 1.14053 126.568 1.04295 128.357 0.971393C132.667 0.808766 136.672 0.795757 140.495 0.938869C148.093 1.21425 155.125 2.05774 161.992 3.52355C164.967 4.15888 167.907 4.90697 170.724 5.74829C173.768 6.659 176.715 7.67162 179.534 8.76664L185.742 11.1562C191.885 13.511 198.238 15.9439 204.331 18.611C215.574 23.544 223.951 28.451 230.889 34.1407L231.765 34.8823C232.826 35.78 233.864 36.7081 234.875 37.6665L235.989 38.7355C236.939 39.6744 237.856 40.6458 238.754 41.6433L239.793 42.786C240.957 44.1368 242.087 45.5289 243.164 46.9969C243.292 47.1227 243.405 47.2701 243.477 47.4132C243.819 47.8751 244.008 48.3001 244.095 48.7468C252.538 66.5273 255.129 81.3654 252.493 96.8301C252.493 96.8344 252.491 96.8366 252.491 96.8388C252.805 97.8362 252.677 98.9768 252.111 99.8614C251.465 100.868 250.348 101.386 249.101 101.284C248.017 101.18 246.957 101.019 245.918 100.822C245.185 101.492 244.357 102.069 243.516 102.552C246.289 103.99 247.228 106.03 247.477 107.694C247.957 110.857 246.265 113.477 242.668 115.252C244.951 117.017 245.485 119.101 245.459 120.715C245.4 124.249 242.805 126.784 238.108 127.948C241.931 130.409 242.36 133.284 241.974 135.366C241.315 138.92 238.132 141.121 233.105 141.587C236.495 144.519 236.477 147.42 235.734 149.48C234.619 152.563 231.687 154.287 227.45 154.463C230.85 158.143 230.065 161.28 229.098 163.023C227.294 166.276 223.495 167.553 218.484 166.651C219.015 169.132 218.328 171.337 216.448 173.037C213.978 175.268 210.661 175.648 206.951 174.164C206.706 175.142 206.216 176.06 205.485 176.894C203.334 179.336 200.066 180.058 196.248 179.009C196.82 181.63 196.081 183.92 194.051 185.648C190.929 188.304 187.015 187.819 183.556 186.049C184.057 189.167 182.999 191.674 180.412 193.311C176.544 195.766 172.391 194.339 169.139 191.728C169.026 195.878 167.081 198.721 163.516 199.751C162.708 199.985 161.849 200.083 161.062 200.092C160.958 200.092 160.641 200.046 160.539 200.022C160.047 199.983 159.407 199.916 158.781 199.716C158.696 199.69 158.499 199.597 158.419 199.556C157.835 199.346 157.272 199.07 156.773 198.745C155.522 197.912 154.385 196.735 153.434 195.323C152.664 198.856 150.513 201.137 147.184 201.802C143.073 202.609 140.076 200.506 138.177 197.518C136.984 200.063 134.931 201.596 132.166 201.928C131.798 201.982 131.446 202.002 131.106 202.002ZM123.84 191.013C124.562 191.013 125.371 191.544 125.483 192.259C125.676 193.493 126.912 199.621 131.811 199.025C134.437 198.708 135.961 196.685 136.343 193.016C136.416 192.32 136.967 191.774 137.663 191.709C138.385 191.663 139.007 192.075 139.207 192.745C139.719 194.443 141.787 199.927 146.605 198.929C150.667 198.123 151.079 193.786 150.708 190.288C150.628 189.532 151.144 188.836 151.894 188.695C152.64 188.558 153.8 188.929 154.008 189.662C154.639 191.886 156.103 194.783 158.312 196.251C158.677 196.496 159.047 196.676 159.496 196.843C160.002 197.034 160.407 197.075 160.799 197.108C160.873 197.117 161.107 197.153 161.177 197.169C161.652 197.273 162.146 197.099 162.686 196.939C166.604 195.811 166.55 191.496 165.815 188.079C165.672 187.411 166.006 186.734 166.624 186.444C167.239 186.153 167.977 186.325 168.4 186.856C170.984 190.104 175.275 193.101 178.829 190.839C181.128 189.386 181.325 186.769 179.417 183.066C179.096 182.443 179.263 181.678 179.812 181.242C180.365 180.815 181.143 180.826 181.676 181.277C182.756 182.198 188.335 186.646 192.139 183.417C192.77 182.881 194.691 181.251 192.36 177.176C192.041 176.615 192.124 175.912 192.566 175.442C193.006 174.971 193.711 174.845 194.283 175.132C196.139 176.044 200.728 177.853 203.265 174.967C204.03 174.095 204.303 173.193 204.128 172.135C204.036 171.578 204.271 171.016 204.735 170.691C205.194 170.37 205.804 170.335 206.296 170.615C208.241 171.716 211.888 173.202 214.464 170.871C215.438 169.993 216.533 168.455 214.833 165.276C214.551 164.752 214.616 164.11 214.993 163.652C215.37 163.195 215.984 162.995 216.554 163.182C218.894 163.893 224.545 165.177 226.516 161.614C228.133 158.693 225.037 155.809 222.155 153.897C221.576 153.515 221.344 152.778 221.602 152.132C221.858 151.486 222.546 151.115 223.218 151.23C225.701 151.661 231.598 152.266 232.96 148.489C233.706 146.429 232.455 144.393 229.246 142.439C228.563 142.027 228.337 141.143 228.738 140.451L229.274 139.503C229.539 139.033 230.109 138.757 230.579 138.755C232.919 138.835 238.396 138.495 239.077 134.841C239.441 132.868 238.119 131.123 235.139 129.655C234.485 129.334 234.166 128.577 234.393 127.881L234.875 126.409C235.037 125.873 235.486 125.481 236.035 125.385C238.431 124.98 242.46 123.83 242.514 120.675C242.525 120.003 242.56 117.965 238.678 116.369C238.104 116.133 237.739 115.558 237.772 114.936C237.804 114.316 238.223 113.782 238.819 113.607C241.17 112.908 245.04 111.267 244.567 108.138C244.275 106.204 242.488 104.875 239.255 104.183C238.613 104.046 238.14 103.498 238.099 102.843C238.056 102.188 238.455 101.583 239.073 101.364C241.367 100.553 243.243 99.4429 244.355 98.2395C244.706 97.8622 245.233 97.6952 245.734 97.7993C246.916 98.0487 248.124 98.2503 249.37 98.3696C249.737 98.1181 249.745 97.8167 249.646 97.6454C249.435 97.2833 249.39 96.8474 249.52 96.4506C249.52 96.4485 249.591 96.3466 249.591 96.3444C252.128 81.4565 249.583 67.1062 241.341 49.8201C241.267 49.6662 241.222 49.4971 241.204 49.3279C241.174 49.2846 241.059 49.1111 240.977 48.9766C240.931 48.9289 240.89 48.8791 240.857 48.8314C239.817 47.4046 238.706 46.0385 237.564 44.7136L236.571 43.6208C235.707 42.6624 234.827 41.73 233.925 40.8366L232.852 39.8088C231.878 38.883 230.881 37.9961 229.868 37.1353L229.022 36.4197C222.301 30.9056 214.139 26.1287 203.338 21.393C197.117 18.6717 190.796 16.2496 184.686 13.9078L178.465 11.5139C175.72 10.4449 172.849 9.46051 169.93 8.58883C167.133 7.75184 164.271 7.02328 161.378 6.40747C154.678 4.97852 147.813 4.15021 140.384 3.8835C136.631 3.74039 132.7 3.74905 128.699 3.90517C126.709 3.9854 124.941 4.08298 123.165 4.20441L122.248 4.26512C117.435 4.61206 112.43 5.12382 106.955 5.83937C99.0751 6.86284 92.583 7.86894 86.5181 9.00082C82.5652 9.7424 78.9592 10.5078 75.5397 11.3275C65.0731 13.8297 56.0115 16.911 47.8303 20.7512C46.3319 21.4559 44.9334 22.1541 43.5478 22.8783L42.4224 21.805L43.1076 23.1017C41.8456 23.7695 40.6032 24.4699 39.365 25.1898L38.6256 25.6104C37.188 26.4648 35.759 27.3581 34.3518 28.2927C27.3892 32.9286 14.7368 42.7513 8.26429 56.4509C5.95933 61.3341 4.67133 66.2216 4.43281 70.9833C4.4133 71.3758 4.23983 71.7335 3.96661 71.9872C4.08154 72.8394 4.24416 73.7046 4.43281 74.5763L4.49352 75.4501C4.5022 75.6995 4.51087 75.9467 4.53256 76.1982C4.7624 76.3847 4.93153 76.6405 5.01393 76.9289C6.63152 82.571 9.6347 88.1458 13.4705 92.6256C13.7849 92.9921 13.8977 93.4908 13.7741 93.957C13.6527 94.4232 13.3057 94.7983 12.8525 94.9631C9.09261 96.314 9.06225 98.3111 9.04924 98.9681C8.98852 102.609 14.4116 104.016 17.6511 104.532C18.423 104.654 18.963 105.363 18.8806 106.137C18.8068 106.805 18.2452 107.871 17.5796 107.962C13.5269 108.539 10.3351 109.918 9.04273 111.655C8.48113 112.408 8.2773 113.229 8.41608 114.162C8.52016 114.843 8.8324 116.913 13.1453 118.011C13.7372 118.16 14.1752 118.663 14.2424 119.273C14.3118 119.88 13.9953 120.465 13.4467 120.741C10.8815 122.044 8.05179 124.18 9.13814 126.966C9.91441 128.956 12.1869 129.982 15.8947 130.008C16.5171 130.012 17.0722 130.414 17.2716 131.001C17.4733 131.593 17.2781 132.248 16.7859 132.634C14.1102 134.72 13.3014 136.734 14.3769 138.614C15.2746 140.186 17.0331 140.958 19.7479 140.973C20.2575 140.978 20.7302 141.245 20.9947 141.68C21.2614 142.112 21.2788 142.654 21.0489 143.109C20.2792 144.612 20.355 145.865 21.2874 147.054C22.0225 147.99 23.098 148.548 24.579 148.754C25.0994 148.825 25.5374 149.166 25.7347 149.651C25.9342 150.137 25.8562 150.69 25.5352 151.104C23.8483 153.283 24.7568 154.443 25.0994 154.881C26.2009 156.284 28.2695 156.586 31.2424 155.805C31.8625 155.638 32.5065 155.892 32.8469 156.423C33.1939 156.954 33.157 157.646 32.7602 158.142C30.3512 161.139 31.7194 162.802 32.1683 163.349C33.4996 164.962 35.7786 165.398 38.9357 164.622C39.4626 164.496 40.022 164.667 40.382 165.077C40.7419 165.487 40.846 166.059 40.653 166.567C40.0155 168.251 40.2887 169.552 41.5139 170.656C43.2182 172.189 45.7248 172.265 48.9492 170.897C49.5021 170.656 50.1439 170.786 50.5689 171.218C50.9917 171.645 51.1067 172.291 50.8638 172.842C49.1747 176.636 51.2173 178 51.8894 178.451C53.8561 179.765 56.3736 179.529 59.3616 177.744C59.8126 177.473 60.3699 177.469 60.8317 177.725C61.2914 177.981 61.5777 178.462 61.582 178.987C61.5972 180.249 62.1458 181.153 63.3124 181.845C65.2379 182.979 67.5862 182.636 70.2988 180.791C70.8257 180.431 71.5261 180.459 72.0248 180.841C72.5279 181.231 72.723 181.899 72.5083 182.495C71.3244 185.809 71.9077 187.988 74.2474 188.97C77.5021 190.343 80.5443 187.803 82.5262 185.438C82.9035 184.982 83.5084 184.811 84.083 184.976C84.7075 185.167 85.3559 185.813 85.3472 186.466C85.2865 190.184 87.611 190.82 88.3764 191.026C90.5599 191.631 92.5765 190.796 94.5345 188.499C94.8814 188.087 95.4235 187.914 95.9569 188.014L97.3013 188.304C97.9713 188.439 98.4592 189.02 98.4787 189.703C98.5655 192.921 99.8838 194.729 102.397 195.076C104.871 195.386 106.931 194.048 108.507 190.997C108.785 190.462 109.349 190.176 109.975 190.215L110.418 190.26C111.107 190.321 111.905 190.878 111.988 191.57C112.239 193.691 113.224 197.26 116.96 197.292C116.975 197.292 116.99 197.292 117.005 197.292C119.596 197.292 121.424 195.538 122.433 192.079C122.613 191.446 123.187 191.013 123.84 191.013Z" fill="#332C2A"/>
<path d="M96.7366 139.428C96.7366 144.057 87.1894 147.811 75.4152 147.811C63.6389 147.811 54.0938 144.057 54.0938 139.428C54.0938 134.798 63.641 131.045 75.4152 131.045C87.1894 131.045 96.7366 134.798 96.7366 139.428Z" fill="#FC6551"/>
<path d="M96.9236 124.43C96.9236 124.43 84.475 94.9771 60.4453 109.227C60.4453 109.227 78.833 105.578 96.9236 124.43Z" fill="#362538"/>
<path d="M96.9292 124.431C96.9292 124.431 82.2169 115.046 69.4062 119.229C69.4062 119.229 76.4643 106.468 96.9292 124.431Z" fill="#362538"/>
<path d="M158.266 124.43C158.266 124.43 170.714 94.9771 194.744 109.227C194.744 109.227 176.356 105.578 158.266 124.43Z" fill="#362538"/>
<path d="M158.266 124.431C158.266 124.431 172.978 115.046 185.789 119.229C185.789 119.229 178.731 106.468 158.266 124.431Z" fill="#362538"/>
<path d="M158.445 139.428C158.445 144.057 167.993 147.811 179.769 147.811C191.545 147.811 201.09 144.057 201.09 139.428C201.09 134.798 191.543 131.045 179.769 131.045C167.993 131.045 158.445 134.798 158.445 139.428Z" fill="#FC6551"/>
<path d="M31.843 105.322C17.8528 105.322 6.47974 92.0625 2.33818 78.2089C1.94788 77.8381 1.70718 77.3481 1.6443 76.7756C1.59659 76.368 1.57925 75.9603 1.56407 75.5505L1.53588 74.9629C1.31688 74.0175 1.10872 72.8617 0.982957 71.7364C0.909233 71.1054 1.12606 70.5112 1.54889 70.0797C3.09493 47.8649 23.8179 31.767 32.7299 25.8366C55.6624 10.5757 82.8753 6.00265 106.582 2.91491C129.124 -0.0232161 153.57 -1.34373 179.534 8.76731C181.705 9.61297 183.886 10.4499 186.069 11.2848C207.202 19.3727 229.053 27.7339 243.162 46.9976C243.29 47.1233 243.403 47.2708 243.475 47.4139C243.817 47.8758 244.006 48.3007 244.093 48.7474C252.536 66.5279 255.127 81.366 252.491 96.8307C252.491 96.8351 252.488 96.8372 252.488 96.8394C252.803 97.8368 252.675 98.9774 252.109 99.8621C251.463 100.868 250.346 101.386 249.099 101.285C239.773 100.393 232.143 95.8224 224.764 91.4055C223.092 90.4016 221.407 89.3955 219.69 88.4175C208.282 81.9255 195.792 76.9599 182.565 73.6532C155.971 67.0115 127.52 67.5688 100.272 75.2751C86.9041 79.0546 73.9286 84.4277 61.7056 91.2472C59.2987 92.5894 56.9157 94.181 54.3874 95.868C48.5545 99.7602 42.5243 103.787 35.7244 104.975C34.4103 105.211 33.1158 105.322 31.843 105.322ZM4.53472 76.1836C4.76456 76.3701 4.9337 76.626 5.01609 76.9144C9.09694 91.1692 21.5043 104.496 35.2191 102.089C41.4098 101.007 47.1776 97.156 52.759 93.4329C55.2222 91.7871 57.77 90.0872 60.2767 88.6886C72.6992 81.7607 85.8871 76.2986 99.474 72.4562C127.209 64.6068 156.185 64.0409 183.277 70.8105C196.762 74.1823 209.501 79.2475 221.143 85.8697C222.877 86.8585 224.579 87.8776 226.271 88.8902C233.697 93.3375 240.71 97.5376 249.379 98.3659C249.745 98.1144 249.754 97.813 249.654 97.6417C249.444 97.2796 249.398 96.8437 249.529 96.4469C249.529 96.4448 249.6 96.3429 249.6 96.3407C252.137 81.4528 249.591 67.1026 241.35 49.8165C241.276 49.6625 241.23 49.4934 241.213 49.3242C241.183 49.2809 241.068 49.1074 240.985 48.9729C240.94 48.9252 240.899 48.8754 240.866 48.8277C227.288 30.2037 205.799 21.9813 185.02 14.0277C182.834 13.1907 180.646 12.3538 178.469 11.5059C153.121 1.62908 129.124 2.93875 106.961 5.82916C77.9596 9.60644 54.511 14.869 34.3561 28.2803C25.7152 34.033 5.49964 49.7059 4.43715 70.9709C4.41763 71.3634 4.24416 71.719 3.97095 71.9749C4.08587 72.827 4.2485 73.6922 4.43715 74.5639L4.49786 75.4377C4.50653 75.6849 4.5152 75.9321 4.53472 76.1836Z" fill="#332C2A"/>
<g opacity="0.44">
<path d="M99.2611 16.9148C93.9465 13.3674 77.9332 20.2801 72.9654 21.9606C52.4333 28.9015 31.6756 39.0255 18.8693 57.0164C18.5375 57.0077 18.1928 57.1248 17.9152 57.4501C15.2959 60.4944 11.9067 66.0129 16.3258 69.3413C21.6361 73.3419 28.924 66.8737 32.183 63.3436C41.2944 53.469 49.9787 45.1685 62.0261 38.7805C68.2623 35.4738 74.7739 32.7243 81.3093 30.0746C86.4678 27.9821 93.7036 26.6572 98.1357 23.4025C101.041 21.2667 102.887 19.3347 99.2611 16.9148Z" fill="white"/>
</g>
<g opacity="0.44">
<path d="M135.277 13.7092C133.891 11.7968 127.694 12.727 125.979 12.8137C121.514 13.0392 117.136 13.7483 112.791 14.7804C112.515 14.8455 112.409 15.045 112.372 15.2596C109.465 15.8646 106.908 17.1548 108.053 19.618C108.977 21.6021 111.891 21.2703 113.589 21.2204C118.548 21.0752 123.414 20.2186 128.221 19.0412C130.159 18.5685 137.818 17.2155 135.277 13.7092Z" fill="white"/>
</g>
<path d="M129.433 145.551C116.798 144.247 104.174 150.429 101.587 161.737C101.468 161.943 101.301 162.119 101.192 162.329C100.971 162.759 101.647 163.158 101.923 162.724C101.964 162.659 102.018 162.611 102.059 162.548C102.129 162.512 102.192 162.466 102.224 162.39C102.244 162.34 102.274 162.297 102.294 162.247C107.895 153.975 116.47 152.826 126.924 152.726C135.615 152.643 144.774 158.68 148.731 165.662C148.922 165.998 148.731 165.662 148.679 165.174C147.578 154.883 141.599 146.806 129.433 145.551Z" fill="#362538"/>
</svg>
