<svg width="4000" height="4000" viewBox="0 0 4000 4000" fill="none" xmlns="http://www.w3.org/2000/svg">
<g clip-path="url(#clip0_1767_2804)">
<path d="M4000 0H0V4000H4000V0Z" fill="#0BCBFF"/>
<g opacity="0.2">
<path d="M2125 3570.47C2655.19 3570.47 3085 3521.78 3085 3461.72C3085 3401.66 2655.19 3352.98 2125 3352.98C1594.81 3352.98 1165 3401.66 1165 3461.72C1165 3521.78 1594.81 3570.47 2125 3570.47Z" fill="#650000"/>
</g>
<path d="M2791.2 2968.55L2429.8 2263.7L1757.7 952.9C1833.5 714.1 2491.7 612.2 2862.15 799.15C2943 839.95 3007.95 903.45 3051.55 979.65C3086.8 1041.25 3108.15 1111.2 3112.65 1184.2L3141.95 1659.6V2022.85C3217.35 2730.65 3041.3 2947.9 2791.2 2968.55Z" fill="#F44906"/>
<g opacity="0.55">
<path d="M3064.4 1003.7C3021 933.45 2959.05 875.05 2883 836.65C2512.55 649.7 1854.35 751.6 1778.55 990.4L2792.75 2968.4C2792.25 2968.45 2791.7 2968.5 2791.2 2968.55L1757.7 952.9C1833.5 714.1 2491.7 612.2 2862.15 799.15C2951.35 844.2 3021.2 916.8 3064.4 1003.7Z" fill="white"/>
</g>
<path d="M2148.68 741.211C2148.32 741.436 2147.49 742.234 2146.75 742.932C2146.01 743.594 2145.25 744.38 2144.48 745.193C2142.95 746.765 2141.41 748.374 2139.95 750.147C2136.89 753.509 2134.2 757.286 2131.35 760.962C2126.08 768.616 2121.06 776.641 2117.03 785.212C2108.83 802.272 2103.1 820.905 2100.89 840.329C2100.22 845.168 2100.27 850.07 2099.91 854.987C2099.8 857.445 2099.58 859.919 2099.57 862.389L2099.97 869.794C2100.31 874.733 2100.34 879.757 2100.94 884.713L2103.35 899.566C2103.79 902.046 2104.09 904.576 2104.65 907.034L2106.65 914.344L2110.67 929.073C2113.91 938.719 2117.88 948.162 2121.51 957.838C2116.45 948.929 2110.97 940.113 2106.16 930.914L2099.74 916.69L2096.51 909.527C2095.53 907.1 2094.82 904.578 2093.96 902.1L2089.01 887.071C2087.55 881.993 2086.67 876.756 2085.48 871.558L2083.81 863.716C2083.41 861.077 2083.21 858.411 2082.9 855.745C2082.43 850.413 2081.56 845.044 2081.44 839.649C2080.48 818.011 2083.45 795.98 2089.79 774.717C2092.89 764.046 2097.2 753.716 2102.08 743.555C2104.75 738.589 2107.31 733.533 2110.43 728.699C2111.88 726.243 2113.52 723.824 2115.22 721.414C2116.04 720.208 2116.89 718.997 2117.87 717.757C2118.82 716.527 2119.66 715.374 2121.09 713.76L2148.68 741.211Z" fill="white"/>
<path d="M2539.5 710.242C2554.78 724.661 2568.01 741.436 2579.1 759.766C2590.14 778.118 2598.84 798.431 2603.05 820.403C2607.48 842.283 2606.74 865.872 2600.49 888.284C2594.25 910.718 2582.58 931.455 2568.42 949.59L2539.64 923.379C2553.41 910.459 2565.19 895.557 2572.99 878.501C2580.74 861.477 2584.59 842.349 2583.73 822.708C2583.09 803.057 2578.15 783.118 2570.41 764.129C2562.62 745.142 2552.35 726.804 2539.5 710.242Z" fill="white"/>
<path d="M2935.88 828.242C2947.88 867.151 2957.1 907.085 2961.1 947.768C2965.12 988.376 2963.67 1029.83 2954.53 1069.64C2945.52 1109.44 2928.68 1147.22 2905.61 1180.21C2882.6 1213.3 2853.71 1241.62 2821.97 1265.5C2851.94 1239.42 2878.42 1209.33 2898.46 1175.58C2918.58 1141.9 2931.97 1104.67 2937.81 1066.43C2943.74 1028.17 2942.3 989.137 2935.77 951.095C2929.25 912.994 2917.83 875.817 2903.8 839.676L2935.88 828.242Z" fill="white"/>
<path d="M3116.16 1241.27C3120.92 1293.2 3114.46 1345.98 3101.29 1396.71C3088.02 1447.51 3068.03 1496.6 3042.84 1542.98C3017.57 1589.32 2987.05 1633.12 2950.44 1672.18C2932.13 1691.7 2912.21 1709.96 2890.26 1726.13C2868.32 1742.26 2844.31 1756.38 2817.76 1766.43L2805.32 1729.55C2827.97 1722.56 2850.04 1711.55 2870.86 1698.14C2891.71 1684.71 2911.38 1668.89 2929.79 1651.56C2966.64 1616.87 2998.77 1576.54 3026.05 1533.14C3053.28 1489.69 3075.82 1443 3091.95 1393.97C3107.98 1345 3117.67 1293.38 3116.16 1241.27Z" fill="white"/>
<path d="M2918.16 2305.07C2938.92 2305.02 2959.62 2303.78 2980.15 2301.8C3000.67 2299.79 3021.05 2296.87 3041 2292.78C3060.92 2288.65 3080.5 2283.37 3098.79 2276.15C3117.05 2269.03 3134.08 2259.63 3146.84 2247.95L3170.59 2278.78C3150.2 2292.09 3128.55 2299.33 3107.23 2304.09C3085.86 2308.85 3064.54 2311.06 3043.39 2312.09C3022.23 2313.06 3001.22 2312.75 2980.33 2311.52C2959.46 2310.27 2938.7 2308.25 2918.16 2305.07Z" fill="white"/>
<path d="M2864.51 2690.08C2866.08 2695.7 2868.5 2702.49 2870.94 2708.67C2873.39 2714.99 2876.1 2721.25 2879.02 2727.43C2884.85 2739.8 2891.53 2751.81 2899.09 2763.34C2906.81 2774.71 2915.51 2785.46 2925.37 2795.32C2935.41 2804.93 2946.78 2813.26 2959.51 2819.94C2945.69 2816.32 2932.13 2810.59 2919.45 2803.04C2906.97 2795.26 2895.21 2786.11 2884.29 2775.98C2873.55 2765.72 2863.52 2754.63 2854.26 2742.89C2849.62 2737.02 2845.17 2730.98 2840.93 2724.75C2836.6 2718.42 2832.69 2712.46 2828.58 2705.03L2864.51 2690.08Z" fill="white"/>
<g opacity="0.3">
<path d="M2788.15 2962.55L2429.8 2263.7L2804.9 1074.7C2804.9 1074.7 2858.1 897.25 2961.15 917.35C2977.15 936.9 2991.4 957.75 3003.95 979.65C3039.2 1041.25 3060.55 1111.2 3065.05 1184.2L3094.35 1659.6V2022.85C3165.2 2687.8 3014.1 2919.8 2788.15 2962.55Z" fill="#650000"/>
</g>
<path d="M773.905 1714.24L988.185 2337.54C992.99 2351.52 985.556 2366.75 971.578 2371.55C957.601 2376.36 942.376 2368.92 937.572 2354.95C937.499 2354.73 937.391 2354.41 937.325 2354.19L741.539 1724.83C738.744 1715.85 743.761 1706.31 752.74 1703.52C761.551 1700.77 770.914 1705.57 773.905 1714.24Z" fill="#650000"/>
<path d="M2791.21 2983.13C2783.69 2983.13 2777.31 2977.36 2776.68 2969.73C2776.01 2961.7 2781.99 2954.65 2790.02 2953.98C2887.11 2945.97 2961.8 2908.83 3018.37 2840.45C3133.59 2701.16 3170.29 2426.61 3127.44 2024.42C3127.39 2023.9 3127.36 2023.39 3127.36 2022.87V1660.07L3098.07 1185.09C3088.23 1025.62 2995.31 882.737 2855.56 812.197C2589.03 677.656 2191.25 697.507 1960.68 794.431C1856.98 838.022 1791.6 894.343 1771.61 957.3C1769.16 964.983 1760.95 969.229 1753.28 966.795C1745.59 964.356 1741.34 956.148 1743.78 948.467C1766.44 877.102 1837.53 814.531 1949.37 767.522C2186.05 668.032 2594.63 647.79 2868.72 786.138C3017.69 861.333 3116.73 1013.52 3127.2 1183.3L3156.52 1658.73C3156.54 1659.03 3156.55 1659.32 3156.55 1659.62V2022.1C3200.75 2437.75 3162.91 2711.52 3040.86 2859.05C2979.88 2932.77 2896.29 2974.5 2792.42 2983.07C2792.01 2983.11 2791.61 2983.13 2791.21 2983.13Z" fill="#650000"/>
<path d="M1196.15 1622.8C1196.15 1732.05 1138.1 1820.65 1066.4 1820.65H817.297C813.897 1820.65 810.547 1820.45 807.197 1820.05C748.897 1813.25 701.447 1747.7 690.147 1662.15C688.447 1649.45 687.547 1636.3 687.547 1622.8C687.547 1513.55 745.597 1424.95 817.297 1424.95H1066.4C1138.1 1424.95 1196.15 1513.55 1196.15 1622.8Z" fill="white"/>
<path d="M1066.4 1823.15H817.298C813.831 1823.15 810.33 1822.94 806.898 1822.53C748.246 1815.69 699.213 1749.87 687.669 1662.48C685.931 1649.5 685.047 1636.15 685.047 1622.8C685.047 1512.33 744.373 1422.45 817.298 1422.45H1066.4C1139.32 1422.45 1198.65 1512.33 1198.65 1622.8C1198.65 1733.27 1139.32 1823.15 1066.4 1823.15ZM817.298 1427.45C747.132 1427.45 690.047 1515.08 690.047 1622.8C690.047 1635.93 690.916 1649.06 692.625 1661.82C703.87 1746.95 751.102 1810.99 807.483 1817.57C810.725 1817.96 814.026 1818.15 817.297 1818.15H1066.4C1136.56 1818.15 1193.64 1730.52 1193.64 1622.8C1193.64 1515.08 1136.56 1427.45 1066.4 1427.45H817.298Z" fill="#650000"/>
<path d="M1903.79 3124.3V3376.6C1903.79 3415.35 1872.39 3446.7 1833.64 3446.7H1595.79C1568.54 3446.7 1545.64 3425.35 1544.69 3398.15C1541.64 3311.15 1614.69 3262.1 1701.24 3282.25L1688.99 3184.15L1682.29 3130.65C1682.29 3130.65 1725.39 3009.45 1903.79 3124.3Z" fill="white"/>
<path d="M1833.64 3449.2H1595.8C1567.22 3449.2 1543.18 3426.34 1542.19 3398.24C1540.81 3358.79 1555.04 3324.74 1582.24 3302.35C1611.8 3278.03 1653.93 3269.62 1698.33 3279.04L1679.74 3130.37L1679.94 3129.81C1680.48 3128.28 1693.77 3092.11 1735.5 3077.88C1779.24 3062.97 1836.32 3077.89 1905.15 3122.2L1906.3 3122.94V3376.6C1906.3 3416.63 1873.7 3449.2 1833.64 3449.2ZM1663.31 3280.27C1633.4 3280.27 1606.14 3289.16 1585.42 3306.21C1559.44 3327.59 1545.87 3360.21 1547.19 3398.06C1548.08 3423.5 1569.89 3444.2 1595.8 3444.2H1833.64C1870.95 3444.2 1901.3 3413.88 1901.3 3376.6V3125.67C1834.38 3082.82 1779.17 3068.33 1737.2 3082.59C1700.42 3095.08 1686.64 3126.51 1684.85 3130.97L1704.17 3285.5L1700.68 3284.68C1687.96 3281.72 1675.42 3280.27 1663.31 3280.27Z" fill="#650000"/>
<g opacity="0.3">
<path d="M1903.8 3322.3V3376.6C1903.8 3415.35 1872.4 3446.7 1833.65 3446.7H1595.8C1568.55 3446.7 1545.65 3425.35 1544.7 3398.15C1544.25 3384.85 1545.55 3372.45 1548.45 3361C1556.1 3379.5 1574.65 3392.4 1595.8 3392.4H1833.65C1872.4 3392.4 1903.8 3361.05 1903.8 3322.3Z" fill="#650000"/>
</g>
<path d="M1196.17 1622.79C1196.17 1732.06 1138.08 1820.66 1066.42 1820.66H817.281C888.895 1820.66 946.984 1732.06 946.984 1622.79C946.984 1513.53 888.895 1424.93 817.281 1424.93H1066.42C1138.08 1424.93 1196.17 1513.53 1196.17 1622.79Z" fill="#6D445B"/>
<g opacity="0.3">
<path d="M1196.15 1622.8C1196.15 1732.05 1138.1 1820.65 1066.4 1820.65H817.297C871.097 1820.65 917.297 1770.65 936.897 1699.4H1088.75C1133.3 1699.4 1172.65 1665.1 1196 1612.9C1196.1 1616.2 1196.15 1619.5 1196.15 1622.8Z" fill="#650000"/>
</g>
<g opacity="0.55">
<path d="M1196.15 1627.8C1196.15 1632.4 1196.05 1637 1195.8 1641.55C1191.2 1538.7 1135.05 1457.45 1066.4 1457.45H883.297C863.947 1440 841.397 1429.95 817.297 1429.95H1066.4C1138.1 1429.95 1196.15 1518.55 1196.15 1627.8Z" fill="white"/>
</g>
<g opacity="0.3">
<path d="M1903.8 3124.3V3306.65C1842.6 3156.6 1701.25 3206.45 1701.25 3206.45L1689 3184.15L1682.3 3130.65C1682.3 3130.65 1725.4 3009.45 1903.8 3124.3Z" fill="#650000"/>
</g>
<path d="M2572.6 3107.1V3396.1C2572.6 3424.1 2549.95 3446.7 2522 3446.7H2352.2C2326.25 3446.7 2304.2 3426.65 2302.95 3400.75C2300.75 3356.1 2325.55 3320.7 2364.65 3306.65L2346.1 3183.4L2337.2 3124.3C2337.2 3124.3 2387.65 2951.5 2572.6 3107.1Z" fill="white"/>
<path d="M2521.99 3449.2H2352.19C2324.48 3449.2 2301.76 3427.97 2300.45 3400.87C2298.28 3356.84 2321.76 3320.29 2361.87 3305.01L2334.64 3124.13L2334.8 3123.6C2334.98 3122.97 2353.87 3060.25 2408.66 3043.68C2453.8 3030.04 2509.48 3050.73 2574.21 3105.18L2575.1 3105.93V3396.1C2575.09 3425.38 2551.27 3449.2 2521.99 3449.2ZM2339.75 3124.5L2367.42 3308.31L2365.49 3309C2326.36 3323.06 2303.35 3358.17 2305.44 3400.63C2306.62 3425.06 2327.16 3444.2 2352.19 3444.2H2521.99C2548.52 3444.2 2570.1 3422.62 2570.1 3396.1V3108.26C2507.14 3055.54 2453.33 3035.42 2410.14 3048.45C2360.51 3063.44 2341.64 3118.6 2339.75 3124.5Z" fill="#650000"/>
<g opacity="0.3">
<path d="M2572.6 3342.45V3396.1C2572.6 3424.1 2549.95 3446.7 2522 3446.7H2352.2C2326.25 3446.7 2304.2 3426.65 2302.95 3400.75C2302.3 3387.95 2303.9 3375.9 2307.45 3364.9C2315.25 3381.65 2332.6 3393.05 2352.2 3393.05H2522C2549.95 3393.05 2572.6 3370.45 2572.6 3342.45Z" fill="#650000"/>
</g>
<path d="M1704.58 3268.06C1717.89 3269.75 1730.3 3275.29 1741.48 3282.25C1747.05 3285.8 1752.41 3289.65 1757.09 3294.44C1761.7 3299.35 1765.95 3304.67 1768.81 3311.63C1761.3 3311.92 1754.92 3310.94 1748.68 3309.98C1742.52 3308.91 1736.8 3307.31 1731.08 3305.88C1719.68 3302.91 1708.65 3300.42 1697.94 3296.48L1697.66 3296.38C1690.05 3293.58 1686.16 3285.15 1688.95 3277.55C1691.36 3271.01 1697.94 3267.21 1704.58 3268.06Z" fill="#650000"/>
<path d="M1833.66 3461.32H1595.77C1560.19 3461.32 1531.34 3433.79 1530.1 3398.66C1528.61 3356.36 1543.73 3319.39 1572.69 3294.56C1604.12 3267.62 1649.36 3257.34 1696.78 3266.4C1704.7 3267.91 1709.9 3275.56 1708.38 3283.48C1706.87 3291.39 1699.21 3296.58 1691.31 3295.07C1652.64 3287.69 1616.35 3295.58 1591.69 3316.73C1569.29 3335.93 1558.09 3363.9 1559.27 3397.63C1559.95 3416.65 1576.32 3432.13 1595.77 3432.13H1833.66C1864.29 3432.13 1889.2 3407.21 1889.2 3376.58V3124.3C1889.2 3116.24 1895.74 3109.7 1903.8 3109.7C1911.86 3109.7 1918.39 3116.24 1918.39 3124.3V3376.58C1918.39 3423.31 1880.38 3461.32 1833.66 3461.32Z" fill="#650000"/>
<path d="M1066.42 1834.82H817.278C737.927 1834.82 673.367 1739.7 673.367 1622.8C673.367 1505.89 737.928 1410.77 817.278 1410.77H1066.42C1145.77 1410.77 1210.33 1505.89 1210.33 1622.8C1210.33 1739.7 1145.77 1834.82 1066.42 1834.82ZM817.278 1439.09C753.543 1439.09 701.687 1521.5 701.687 1622.8C701.687 1724.09 753.542 1806.5 817.278 1806.5H1066.42C1130.15 1806.5 1182.01 1724.09 1182.01 1622.8C1182.01 1521.5 1130.15 1439.09 1066.42 1439.09H817.278Z" fill="#650000"/>
<path d="M817.265 1832.8C810.546 1832.8 805.102 1827.36 805.102 1820.64C805.102 1813.92 810.546 1808.48 817.265 1808.48C882.094 1808.48 934.838 1725.18 934.838 1622.8C934.838 1520.41 882.094 1437.11 817.265 1437.11C810.546 1437.11 805.102 1431.66 805.102 1424.95C805.102 1418.23 810.546 1412.79 817.265 1412.79C895.507 1412.79 959.164 1507 959.164 1622.8C959.165 1738.59 895.507 1832.8 817.265 1832.8Z" fill="#650000"/>
<g opacity="0.3">
<path d="M2572.6 3107.1V3285.5C2535.1 3179.05 2425 3163.51 2350.92 3215.43L2346.1 3183.4L2337.2 3124.3C2337.2 3124.3 2387.65 2951.5 2572.6 3107.1Z" fill="#650000"/>
</g>
<path d="M812.198 1714.61C838.731 1714.61 860.24 1675.08 860.24 1626.3C860.24 1577.53 838.731 1538 812.198 1538C785.665 1538 764.156 1577.53 764.156 1626.3C764.156 1675.08 785.665 1714.61 812.198 1714.61Z" fill="#F44906"/>
<g opacity="0.55">
<path d="M845.398 1562.4C840.148 1558.75 834.398 1556.75 828.448 1556.75C801.898 1556.75 780.398 1596.3 780.398 1645.05C780.398 1670.2 786.098 1692.9 795.248 1708.95C777.098 1696.4 764.148 1664.15 764.148 1626.3C764.148 1577.55 785.648 1538 812.198 1538C825.098 1538 836.748 1547.3 845.398 1562.4Z" fill="white"/>
</g>
<path d="M812.197 1726.77C778.437 1726.77 751.992 1682.64 751.992 1626.31C751.992 1569.97 778.437 1525.83 812.197 1525.83C845.957 1525.83 872.402 1569.97 872.402 1626.31C872.402 1682.64 845.957 1726.77 812.197 1726.77ZM812.197 1550.16C795.224 1550.16 776.318 1581.43 776.318 1626.31C776.318 1671.18 795.224 1702.45 812.197 1702.45C829.17 1702.45 848.076 1671.18 848.076 1626.31C848.076 1581.43 829.17 1550.16 812.197 1550.16Z" fill="#650000"/>
<path d="M1075.69 1627.86L1026.03 2273.85C1024.9 2288.58 1012.03 2299.61 997.297 2298.48C982.561 2297.34 971.533 2284.48 972.666 2269.74C972.683 2269.52 972.717 2269.17 972.739 2268.94L1041.78 1624.74C1042.78 1615.39 1051.18 1608.62 1060.53 1609.63C1069.7 1610.61 1076.39 1618.73 1075.69 1627.86Z" fill="#650000"/>
<path d="M1326.45 2421.83L1315.85 2575.86C1152.97 2682.89 770.231 2616.77 809.152 2290.47C817.228 2246.3 838.488 2215.94 864.078 2197.94C918.956 2159.31 993.878 2177.8 1001.27 2239.15C1069.14 2246.64 1073.62 2306.38 1056.54 2344.57V2344.62C1090.59 2398.97 1217.82 2400.47 1268.9 2321.76L1315.22 2402.27L1326.45 2421.83Z" fill="white"/>
<path d="M1136.79 2625.37C1064.81 2625.37 990.592 2607.26 932.56 2571.36C836.818 2512.12 792.111 2412.26 806.676 2290.18C816.193 2238.08 842.364 2210.16 862.643 2195.89C893.097 2174.46 932.223 2169.27 962.35 2182.67C985.348 2192.91 999.904 2212.12 1003.5 2236.9C1029.14 2240.17 1048.15 2251.43 1058.53 2269.55C1072.45 2293.86 1068.17 2323.89 1059.36 2344.38C1074.06 2366.64 1106.64 2380.6 1144.83 2380.91C1184.37 2381.18 1237.54 2365.49 1266.81 2320.4L1269.03 2316.97L1329 2421.25L1328.95 2422L1318.26 2577.27L1317.22 2577.95C1268.99 2609.65 1203.86 2625.37 1136.79 2625.37ZM926.187 2180.3C905.538 2180.3 883.897 2187.05 865.523 2199.98C846.002 2213.71 820.806 2240.64 811.617 2290.92C793.287 2444.63 868.697 2525.97 935.191 2567.11C1045.4 2635.3 1214.74 2638.5 1313.44 2574.45L1323.91 2422.42L1268.74 2326.48C1237.97 2370.7 1184.66 2386.33 1144.79 2385.9C1104.29 2385.58 1069.67 2370.27 1054.43 2345.95L1054.04 2345.34L1054.26 2343.55C1062.53 2325.06 1067.47 2295.23 1054.19 2272.04C1044.23 2254.66 1026.34 2244.43 1001 2241.63L999.029 2241.42L998.795 2239.45C995.909 2215.54 982.247 2197 960.318 2187.24C949.83 2182.58 938.174 2180.3 926.187 2180.3Z" fill="#650000"/>
<path d="M3074.71 2632.93C3059.34 2633.85 3050.49 2636.82 3049.08 2652.14C3042.12 2725.85 2934.45 2726.29 2922.73 2643.24C2920.83 2629.76 2921.46 2614.1 2925.45 2596.15C2904.1 2595.95 2881.62 2591.04 2859.24 2583.25V2583.21C2855.01 2581.8 2850.78 2580.19 2846.54 2578.54C2868.19 2627.96 2838.86 2647.42 2803.83 2663.43C2866 2688.29 2871.94 2749.4 2808.69 2780.19C2859.68 2815.46 2836.37 2895.35 2795.7 2890.48C2803.29 2989.92 2778.43 3013.71 2721.12 2961.85C2696.21 3082.99 2661.28 3078.32 2622.21 3021.84C2622.21 3125.27 2527.83 3127.9 2479.52 3084.5H2479.47C2476.26 3081.63 2473.34 3078.61 2470.57 3075.36C2448.68 3133.74 2381.78 3145.56 2352.59 3096.03C2333.13 3156.85 2262.59 3165.36 2243.13 3102.11C2209.07 3172.66 2151.47 3184.09 2104.47 3127.66C2059.47 3179.95 2001.62 3174.55 1993.79 3105.76C1950.01 3158.06 1882.82 3165.12 1832.03 3094.82C1787.56 3159.38 1745.09 3157.19 1704.32 3099.68C1673.92 3169.01 1604.3 3147.31 1599.72 3088.74C1548.11 3185.84 1462.29 3131.3 1483.79 3051.03C1423.75 3130.48 1351.9 3069.62 1435.14 3003.99C1323.24 2968.33 1410.81 2895.35 1410.81 2895.35C1315.12 2840.23 1374.33 2760.73 1374.33 2760.73C1219.52 2731.54 1360.51 2632.64 1360.51 2632.64C1272.94 2587.25 1341.05 2519.14 1341.05 2519.14C1316.97 2497 1309.86 2476.91 1310.01 2460.85C1310.2 2436.92 1326.45 2421.83 1326.45 2421.83C1326.45 2421.83 1302.13 2163.99 1285.93 2087.75C1269.73 2011.52 1295.66 1977.46 1295.66 1977.46C1266.47 1922.34 1315.12 1894.75 1315.12 1894.75C1242.14 1865.56 1266.47 1760.19 1323.24 1758.53C1243.75 1706.67 1229.64 1571.47 1313.51 1528.27C1268.07 1495.82 1275.86 1404.94 1324.85 1393.65C1268.07 1366.12 1263.79 1278.64 1332.97 1250.96C1260 1173.12 1335.6 1081.75 1388.09 1106.61C1377.29 1046.09 1431.88 997.977 1491.87 1035.29C1501.21 988.734 1575.4 946.894 1616.75 1004.06C1662.78 919.164 1740.86 926.559 1784.6 974.869C1837.58 931.132 1924.47 918.921 1976.77 970.004C2005.13 900.726 2072.85 911.623 2121.5 957.841C2174.63 898.828 2233.84 911.185 2296.64 966.355C2347.48 923.396 2402.31 912.791 2465.7 971.22C2519.85 908.509 2562.76 924.418 2599.49 983.383C2653.3 929.575 2691.35 932.446 2712.61 995.546C2766.12 963.582 2797.7 979.394 2807.33 1013.16C2815.02 1040.21 2808.59 1078.84 2788.02 1113.52C2867.75 1228.68 2825.96 1266.58 2788.02 1306.91C2836.67 1326.37 2847.61 1388.4 2794.1 1412.72C2847.61 1437.05 2834.48 1502.73 2794.1 1517.32C2849.7 1563.88 2844.35 1603.05 2802.61 1637.73C2878.94 1682.2 2846.88 1722.38 2794.1 1761.79C2887.7 1805.72 2860.6 1860.21 2815.99 1916.26L2829.37 2232.49C2832 2234.73 2834.48 2236.96 2836.81 2239.15C2870.77 2271.02 2879.48 2301.57 2872.81 2321.91C2868.48 2335.04 2857.73 2343.95 2843.14 2346.09C2852.53 2353.72 2862.5 2360.88 2872.96 2367.54C2942.97 2412.49 3035.79 2436.48 3144.38 2439.64C3176.88 2441.05 3202.86 2449.62 3221.54 2462.51C3292.47 2511.3 3257.79 2621.64 3074.71 2632.93Z" fill="white"/>
<path d="M2167.76 3166.02C2145.79 3166.02 2124.09 3154.21 2104.45 3131.48C2080.26 3158.53 2052.12 3170.36 2028.78 3163.18C2009.36 3157.2 1996.45 3138.97 1992.07 3111.56C1969.5 3136.56 1941.84 3149.67 1913.96 3148.72C1883.91 3147.65 1855.67 3130.51 1832.09 3099.1C1810.31 3129.77 1788.22 3145.38 1766.41 3145.53C1766.31 3145.53 1766.2 3145.53 1766.1 3145.53C1745.5 3145.53 1724.9 3131.77 1704.81 3104.61C1688.15 3139.05 1662.07 3148.06 1642.7 3144.77C1620 3140.93 1602.82 3121.96 1598.22 3096.55C1571.65 3141.67 1538.55 3148.69 1515.78 3139.73C1492.21 3130.45 1472.74 3100.23 1479.15 3060.71C1456.06 3087.15 1432.64 3093.65 1417.59 3090.46C1406.26 3088.05 1398.3 3080.41 1395.75 3069.49C1391.3 3050.45 1404.07 3026.53 1430.01 3004.92C1398.22 2994 1380.21 2978.73 1376.44 2959.48C1370.92 2931.22 1397.81 2903.82 1406.58 2895.75C1377.72 2878.4 1360.48 2856.99 1355.33 2832.09C1348.67 2799.86 1364.15 2771.77 1370.13 2762.46C1328.09 2753.96 1304.52 2739.14 1300.03 2718.39C1292.43 2683.18 1342.26 2643.12 1355.82 2632.96C1331.09 2619.32 1317.01 2602.39 1313.94 2582.61C1309.34 2552.88 1330.98 2526.44 1337.51 2519.24C1317.42 2500.19 1307.33 2480.54 1307.51 2460.82C1307.68 2439.12 1320.3 2424.56 1323.85 2420.89C1322.04 2401.86 1298.91 2160.87 1283.48 2088.27C1268.79 2019.12 1288.1 1984.36 1292.74 1977.27C1269.17 1931.15 1298.76 1903.55 1309.94 1895.24C1271.82 1877.63 1263.71 1840 1268.61 1812.36C1273.85 1782.83 1292.96 1760.97 1316.27 1756.75C1276.45 1727.62 1251.82 1674.64 1254.49 1622.6C1256.64 1580.5 1276.42 1546.22 1308.92 1527.9C1283.37 1507.13 1277.37 1469.18 1282.84 1441.73C1287.68 1417.49 1300.75 1399.75 1318.36 1393.02C1293.36 1378.36 1278.16 1350.65 1279.22 1320.79C1280.33 1289.52 1298.76 1263.31 1328.73 1250.03C1288.51 1204.96 1297.11 1157.39 1317.09 1129.98C1335.03 1105.37 1362.36 1094.58 1384.96 1102.61C1381.23 1073.27 1392.57 1045.28 1414.54 1030.4C1436.29 1015.66 1463.72 1016.06 1490.21 1031.38C1497.13 1005.39 1522.87 981.714 1551.58 975.469C1576.86 969.966 1599.77 978.489 1616.43 999.487C1642.71 953.188 1675.47 940.078 1698.57 937.304C1729.15 933.644 1761.24 946.367 1784.84 971.442C1837.5 929.262 1921.93 916.093 1975.88 965.712C1987.16 940.326 2004.83 924.425 2027.16 919.638C2056.05 913.439 2091.14 926.374 2121.36 954.282C2170.86 900.808 2228.23 903.679 2296.68 963.061C2354.07 915.468 2409.34 916.97 2465.5 967.646C2490.15 939.716 2513.1 927.038 2535.47 928.72C2558.14 930.483 2579.25 947.072 2599.95 979.413C2628.77 951.21 2653.46 939.276 2673.38 943.939C2690.43 947.933 2704.08 964.044 2713.97 991.842C2740.84 976.378 2764.32 971.893 2782 978.903C2795.4 984.211 2804.98 995.817 2809.73 1012.46C2817.84 1040.99 2810.65 1079.53 2790.98 1113.41C2868.22 1225.69 2830.15 1265.97 2793.33 1304.92L2792.29 1306.01C2816.07 1316.84 2831.58 1338.45 2832.12 1361.95C2832.61 1383.24 2820.88 1401.51 2799.74 1412.73C2820.89 1424.14 2832.84 1443.96 2831.93 1466.63C2831.03 1489.2 2817.91 1509.35 2798.84 1518.08C2824.45 1540.34 2837.41 1562.18 2837.37 1583.04C2837.34 1601.82 2827.36 1619.61 2806.9 1637.36C2835.08 1654.38 2849.31 1671.68 2850.37 1690.21C2851.88 1716.75 2825.75 1740.94 2798.89 1761.31C2833.3 1778.13 2852.62 1797.35 2857.91 1819.98C2865.42 1852.08 2843.51 1885.6 2818.53 1917.08L2831.82 2231.29C2834.17 2233.32 2836.41 2235.34 2838.52 2237.32C2869.48 2266.37 2883.18 2298.28 2875.19 2322.68C2871.07 2335.17 2861.62 2343.97 2848.85 2347.44C2856.84 2353.71 2865.38 2359.74 2874.3 2365.43C2943.41 2409.8 3034.3 2433.93 3144.45 2437.13C3175.7 2438.49 3202.83 2446.55 3222.96 2460.44C3251.89 2480.34 3264.13 2510.34 3255.72 2540.68C3244.32 2581.79 3190.82 2628.27 3074.87 2635.42C3059.75 2636.33 3052.8 2638.99 3051.57 2652.37C3047.95 2690.62 3018.86 2708.37 2991.62 2709C2961.84 2709.55 2926.74 2689.51 2920.25 2643.59C2918.34 2629.96 2919.05 2614.83 2922.38 2598.58C2903.03 2598.01 2881.53 2593.65 2858.42 2585.61L2856.74 2585C2854.81 2584.33 2852.89 2583.63 2851.04 2582.94C2868.43 2628.76 2840.27 2648.86 2809.96 2663.33C2837.96 2676.08 2854.99 2697.21 2855.85 2720.64C2856.7 2744.21 2841.31 2765.88 2813.45 2780.58C2841.75 2802.56 2845 2838.16 2835.68 2862.77C2828.31 2882.21 2814.2 2893.59 2798.41 2893.18C2802.38 2949.05 2795.94 2980.33 2778.73 2988.76C2765.51 2995.24 2747.16 2987.98 2722.69 2966.59C2709.89 3026.72 2693.78 3057.99 2673.48 3062.13C2659.03 3065.08 2642.97 3054.36 2624.54 3029.39C2622.73 3067.48 2607.08 3094.87 2580 3106.94C2549.08 3120.73 2507.51 3112.52 2478.57 3087H2478.56L2477.81 3086.36C2475.57 3084.36 2473.45 3082.27 2471.39 3080.04C2459.46 3108.26 2435.98 3127.01 2409.3 3129.33C2387.09 3131.26 2366.51 3121.01 2353.25 3101.71C2342.41 3129.89 2318.93 3148.42 2293.63 3148.25C2270.9 3148.12 2252.2 3133.4 2242.7 3108.54C2225.13 3142.18 2201.34 3162.35 2175.27 3165.55C2172.76 3165.87 2170.26 3166.02 2167.76 3166.02ZM2104.51 3123.79L2106.4 3126.06C2127.61 3151.54 2151.21 3163.46 2174.66 3160.6C2200.34 3157.44 2223.86 3136.28 2240.88 3101.03L2243.65 3095.29L2245.52 3101.38C2253.55 3127.48 2271.54 3143.13 2293.65 3143.26C2293.74 3143.26 2293.83 3143.26 2293.92 3143.26C2318.42 3143.26 2341.02 3124.01 2350.21 3095.27L2351.92 3089.95L2354.75 3094.76C2366.98 3115.5 2386.71 3126.25 2408.87 3124.36C2434.8 3122.1 2457.54 3102.98 2468.23 3074.48L2469.72 3070.5L2472.48 3073.73C2475.05 3076.75 2477.67 3079.48 2480.49 3082.05L2481.19 3082.64C2508.3 3106.99 2549 3115.3 2577.96 3102.38C2604.89 3090.37 2619.72 3061.77 2619.72 3021.84V3013.83L2624.28 3020.42C2643.3 3047.92 2659.04 3059.99 2672.49 3057.23C2690.82 3053.5 2706.36 3021.24 2718.68 2961.35L2719.56 2957.07L2722.81 2960C2746.87 2981.78 2764.93 2989.96 2776.54 2984.27C2791.77 2976.81 2797.38 2945.31 2793.22 2890.67L2792.98 2887.64L2796 2888C2810.6 2889.77 2824.04 2879.4 2831 2861C2840.02 2837.21 2836.43 2802.42 2807.27 2782.25L2803.76 2779.82L2807.6 2777.94C2835.91 2764.16 2851.67 2743.34 2850.85 2720.82C2850.02 2698.01 2832.1 2677.43 2802.9 2665.75L2797.48 2663.58L2802.79 2661.16C2836.7 2645.66 2865.38 2627.77 2844.26 2579.54L2841.83 2574.01L2847.45 2576.21C2851.21 2577.67 2855.64 2579.37 2860.04 2580.84L2861.75 2581.47C2884.92 2589.38 2906.36 2593.47 2925.48 2593.65L2928.57 2593.67L2927.9 2596.69C2924.16 2613.49 2923.26 2629.03 2925.21 2642.89C2931.19 2685.28 2961.82 2704.02 2990.04 2704.02C2990.54 2704.02 2991.02 2704.01 2991.51 2704C3016.54 2703.42 3043.27 2687.09 3046.59 2651.91C3048.28 2633.53 3060.79 2631.26 3074.57 2630.43C3187.9 2623.44 3239.97 2578.8 3250.91 2539.35C3258.72 2511.16 3247.22 2483.2 3220.13 2464.56C3200.77 2451.2 3174.55 2443.45 3144.28 2442.13C3033.24 2438.9 2941.49 2414.51 2871.61 2369.64C2860.98 2362.87 2850.87 2355.59 2841.57 2348.02L2837.16 2344.43L2842.78 2343.61C2856.31 2341.62 2866.39 2333.43 2870.44 2321.12C2877.82 2298.62 2864.61 2268.66 2835.11 2240.97C2832.8 2238.81 2830.35 2236.6 2827.75 2234.39L2826.92 2233.68L2826.87 2232.59L2813.46 1915.43L2814.04 1914.7C2837.31 1885.46 2860.15 1851.48 2853.05 1821.12C2847.93 1799.27 2828.31 1780.6 2793.04 1764.05L2789.26 1762.28L2792.61 1759.78C2817.94 1740.88 2846.83 1715.91 2845.38 1690.49C2844.39 1673.12 2829.99 1656.57 2801.36 1639.89L2798.27 1638.09L2801.02 1635.81C2822.08 1618.3 2832.34 1601.04 2832.38 1583.04C2832.41 1562.89 2818.99 1541.42 2792.49 1519.24L2789.16 1516.45L2793.25 1514.97C2812.52 1508.01 2826.06 1488.5 2826.94 1466.44C2827.84 1443.94 2815.49 1425.19 2793.07 1415L2788.06 1412.72L2793.07 1410.45C2815.19 1400.39 2827.6 1382.76 2827.12 1362.07C2826.6 1339.49 2810.89 1318.75 2787.1 1309.23L2783.69 1307.87L2789.7 1301.49C2826.93 1262.11 2862.11 1224.91 2785.97 1114.94L2785.06 1113.63L2785.88 1112.25C2805.48 1079.18 2812.79 1041.48 2804.93 1013.84C2800.63 998.742 2792.06 988.271 2780.16 983.557C2763.42 976.916 2740.49 981.802 2713.9 997.693L2711.24 999.282L2710.25 996.345C2700.87 968.515 2688.08 952.524 2672.24 948.813C2653.62 944.431 2629.74 956.677 2601.27 985.151L2599.04 987.378L2597.38 984.705C2577.05 952.068 2556.68 935.389 2535.09 933.711C2514.13 932.109 2491.44 945.251 2467.61 972.854L2465.92 974.81L2464.02 973.06C2408.08 921.5 2355.41 919.981 2298.26 968.265L2296.62 969.657L2295 968.234C2227.56 908.998 2171.41 906.142 2123.37 959.516L2121.65 961.425L2119.79 959.655C2090.34 931.684 2056.13 918.551 2028.21 924.533C2006.61 929.167 1989.63 945.219 1979.09 970.954L1977.68 974.389L1975.03 971.794C1923.32 921.286 1836.75 935.07 1786.2 976.799L1784.36 978.318L1782.75 976.548C1760.09 951.526 1728.86 938.721 1699.17 942.275C1676.69 944.975 1644.52 958.093 1618.96 1005.25L1617.06 1008.75L1614.73 1005.53C1599.15 983.983 1577.11 975.04 1552.65 980.364C1524.51 986.482 1499.44 1010.31 1494.32 1035.79L1493.62 1039.32L1490.55 1037.42C1464.88 1021.45 1438.21 1020.41 1417.36 1034.54C1395.91 1049.07 1385.39 1077.19 1390.56 1106.18L1391.42 1110.95L1387.03 1108.87C1365.87 1098.85 1338.77 1108.75 1321.14 1132.93C1301.89 1159.34 1293.92 1205.64 1334.81 1249.26L1337.31 1251.93L1333.91 1253.29C1303.87 1265.3 1285.3 1290.61 1284.22 1320.97C1283.16 1350.95 1299.54 1378.6 1325.94 1391.41L1332.33 1394.5L1325.42 1396.09C1306.8 1400.38 1292.72 1417.81 1287.75 1442.72C1282.36 1469.73 1288.59 1507.39 1314.98 1526.24L1318.31 1528.62L1314.66 1530.49C1281.74 1547.46 1261.63 1581.12 1259.48 1622.86C1256.78 1675.58 1282.96 1729.26 1324.62 1756.44L1331.3 1760.8L1323.32 1761.03C1299.34 1761.73 1278.87 1783.2 1273.54 1813.24C1268.79 1840.03 1277.07 1876.84 1316.05 1892.44L1320.87 1894.36L1316.36 1896.93C1314.46 1898.01 1270.2 1924.03 1297.87 1976.29L1298.62 1977.7L1297.66 1978.97C1297.41 1979.31 1272.65 2013.23 1288.38 2087.23C1304.43 2162.74 1328.71 2419.02 1328.95 2421.6L1329.06 2422.83L1328.17 2423.67C1328.01 2423.81 1312.7 2438.36 1312.52 2460.87C1312.34 2479.72 1322.52 2498.7 1342.74 2517.3L1344.66 2519.06L1342.82 2520.9C1342.53 2521.19 1313.98 2550.23 1318.89 2581.88C1321.85 2600.91 1336.24 2617.24 1361.67 2630.42L1365.33 2632.32L1361.95 2634.69C1361.3 2635.14 1297.02 2680.75 1304.93 2717.34C1309.08 2736.55 1332.58 2750.32 1374.79 2758.28L1378.72 2759.02L1376.34 2762.23C1376.1 2762.55 1352.67 2794.63 1360.24 2831.13C1365.28 2855.4 1382.72 2876.28 1412.07 2893.19L1415.17 2894.98L1412.42 2897.27C1412.05 2897.58 1375.48 2928.51 1381.36 2958.54C1384.92 2976.72 1403.27 2991.21 1435.9 3001.61L1440.39 3003.04L1436.69 3005.95C1409.91 3027.07 1396.43 3050.4 1400.62 3068.36C1402.71 3077.32 1409.28 3083.59 1418.63 3085.57C1433.6 3088.76 1458.06 3080.94 1481.8 3049.53L1489.52 3039.3L1486.21 3051.68C1475.03 3093.41 1494.05 3125.8 1517.61 3135.08C1539.44 3143.67 1571.92 3135.73 1597.52 3087.57L1601.55 3079.98L1602.22 3088.54C1604.32 3115.4 1620.92 3136.02 1643.53 3139.85C1667.09 3143.85 1688.98 3128.45 1702.04 3098.68L1703.81 3094.64L1706.37 3098.24C1726.35 3126.44 1746.51 3140.85 1766.38 3140.53C1787.14 3140.39 1808.53 3124.54 1829.97 3093.4L1831.98 3090.49L1834.06 3093.36C1857.11 3125.27 1884.8 3142.69 1914.13 3143.73C1942.05 3144.73 1969.68 3130.68 1991.88 3104.17L1995.62 3099.7L1996.28 3105.49C1999.51 3133.87 2011.57 3152.66 2030.25 3158.41C2051.95 3165.08 2079.65 3152.68 2102.58 3126.03L2104.51 3123.79Z" fill="#650000"/>
<path d="M2168 3178.1C2146 3178.1 2123.99 3168 2104.31 3148.94C2078.94 3172.82 2050.19 3182.42 2025.21 3174.74C2007.14 3169.18 1993.43 3154.98 1985.64 3134.48C1963.86 3152.5 1938.83 3161.68 1913.52 3160.81C1892.22 3160.05 1861.94 3151.73 1832.42 3118.62C1811.06 3144.67 1789.37 3157.47 1766.49 3157.62C1766.36 3157.62 1766.22 3157.62 1766.09 3157.62C1745.56 3157.62 1725.55 3146.91 1706.42 3125.72C1687.05 3153.06 1660.95 3160.12 1640.67 3156.7C1620.81 3153.34 1604.42 3140.75 1594.66 3122.76C1566.86 3156.16 1534.78 3160.21 1511.35 3150.98C1489.12 3142.23 1470.39 3119.65 1466.45 3088.66C1449.36 3100.79 1431.46 3105.76 1415.08 3102.29C1399.21 3098.92 1387.58 3087.69 1383.97 3072.24C1379.36 3052.5 1388 3030.2 1407.95 3009.02C1382.94 2997.1 1368.38 2981.28 1364.57 2961.81C1359.52 2935.98 1375.14 2912.14 1387.7 2897.78C1363.38 2880.13 1348.53 2858.92 1343.48 2834.54C1338.21 2809.05 1345.09 2785.91 1352.03 2770.66C1314.16 2760.51 1293.22 2744.15 1288.21 2720.94C1280.92 2687.17 1313.51 2652.69 1335.06 2634.11C1316.05 2620.23 1304.95 2603.59 1301.99 2584.47C1297.84 2557.62 1311.43 2533.5 1321.34 2520.03C1304.16 2501.21 1295.45 2481.55 1295.4 2461.46C1295.36 2440.52 1305.04 2424.88 1311.32 2416.94C1307.48 2377.06 1286.1 2158.76 1271.65 2090.78C1258.6 2029.37 1271.42 1992.24 1279.16 1976.85C1263.69 1941.61 1274.65 1914.26 1289.5 1897.32C1258.32 1874.84 1251.75 1838.13 1256.7 1810.25C1261.23 1784.72 1274.93 1764.06 1293.15 1752.92C1259.69 1720.13 1239.91 1670.64 1242.41 1621.98C1244.48 1581.5 1261.52 1547.49 1289.91 1525.94C1269.93 1501.48 1265.51 1466.78 1270.98 1439.37C1275 1419.19 1284.13 1402.77 1296.79 1392C1277.33 1374.08 1266.15 1348.02 1267.13 1320.36C1268.23 1289.38 1283.97 1262.75 1310.16 1246.24C1276.3 1199.43 1286.42 1151.52 1307.31 1122.86C1324.33 1099.52 1348.92 1086.89 1372.23 1087.96C1373.28 1060.23 1386.15 1035.02 1407.76 1020.38C1429.64 1005.56 1457.05 1003.71 1483.6 1014.66C1495.52 990.028 1520.66 969.818 1549.01 963.651C1573.23 958.38 1596.2 964.291 1614.41 979.969C1636.27 948.343 1665.11 929.141 1697.13 925.296C1728.27 921.563 1760.58 932.764 1785.88 955.547C1838.94 918.169 1916.49 906.953 1972.02 946.98C1987.86 920.952 2008.7 911.228 2024.62 907.813C2054.52 901.409 2089.63 912.518 2120.71 937.725C2171.16 889.878 2230.32 893.121 2296.91 947.449C2353.15 904.951 2409.45 906.106 2464.55 950.906C2488.97 926.033 2512.58 914.778 2536.41 916.663C2559.97 918.494 2581.54 933.038 2602.01 960.999C2629.95 936.487 2654.32 927.059 2676.14 932.163C2694.4 936.443 2709.16 950.796 2720.17 974.905C2766.69 952.693 2792.8 967.774 2804.72 979.658C2831.79 1006.66 2831.59 1062.66 2805.15 1112.78C2875.81 1218.88 2845.96 1265.5 2811.53 1303.16C2831.34 1317.18 2843.67 1338.62 2844.21 1361.67C2844.67 1381.47 2836.23 1399.49 2820.91 1412.81C2836.48 1426.7 2844.87 1445.84 2844.02 1467.12C2843.18 1488.06 2833.49 1507.3 2818.44 1519.86C2839.32 1541.02 2849.5 1561.82 2849.47 1583.07C2849.43 1601.22 2841.6 1618.82 2826.15 1635.56C2849.42 1652.31 2861.34 1670.07 2862.44 1689.52C2863.97 1716.28 2844.33 1739.47 2820.74 1759.37C2848.4 1775.91 2864.48 1794.96 2869.69 1817.23C2878.06 1853.02 2856.48 1888.19 2830.8 1921.04L2843.68 2225.64C2879.56 2258.11 2895.82 2294.74 2887.28 2324.5C2884.42 2334.45 2878.93 2342.83 2871.47 2349.06C2938.99 2395.59 3032.85 2421.78 3144.8 2425.05C3230.57 2428.74 3269.97 2477.52 3270.38 2521.3C3270.91 2578.1 3210.89 2639.15 3075.61 2647.49C3075.6 2647.49 3075.6 2647.49 3075.59 2647.49C3066.65 2648.03 3064.79 2649.22 3064.5 2649.46C3064.52 2649.46 3063.89 2650.42 3063.6 2653.52C3060.87 2682.49 3044.72 2705.06 3019.29 2715.46C2992.54 2726.39 2960.71 2721.18 2938.2 2702.18C2923.56 2689.82 2901.64 2662.07 2908.26 2609.71C2895.53 2608.33 2882.13 2605.56 2868.12 2601.44C2871.68 2632.88 2853.58 2651.75 2834.77 2663.73C2855.15 2678.45 2867.14 2698.39 2867.93 2720.2C2868.8 2744.17 2856.32 2766.21 2833.12 2782.69C2854.81 2808.15 2856.34 2842.36 2846.98 2867.06C2839.8 2886.02 2826.6 2899.1 2811.15 2903.58C2813.9 2959.32 2805.38 2989.17 2784.05 2999.62C2765.97 3008.48 2745.4 2998.72 2730.16 2988.03C2716.57 3042.39 2699.5 3069.17 2675.89 3073.98C2659.68 3077.3 2645.11 3069.15 2632.82 3057.52C2622.9 3097.9 2596.66 3113.91 2579.62 3120.15C2546.53 3132.27 2504.66 3123.4 2474.81 3099.66C2459.86 3123.63 2436.47 3139.11 2410.35 3141.38C2390.05 3143.15 2370.93 3136.51 2356 3123.12C2341.51 3146.08 2318.56 3160.35 2293.91 3160.35C2293.79 3160.35 2293.67 3160.35 2293.56 3160.35C2272.98 3160.23 2254.76 3150.16 2242.16 3132.85C2224.08 3158.9 2201.45 3174.52 2176.74 3177.56C2173.84 3177.92 2170.92 3178.1 2168 3178.1ZM2104.48 3113.06C2104.52 3113.06 2104.55 3113.06 2104.59 3113.06C2108.89 3113.1 2112.95 3115.02 2115.69 3118.32C2134.14 3140.48 2154.08 3150.96 2173.18 3148.59C2194.64 3145.95 2214.81 3127.19 2229.98 3095.77C2232.59 3090.36 2238.2 3087.06 2244.23 3087.56C2250.22 3088.01 2255.32 3092.08 2257.08 3097.82C2263.57 3118.92 2276.92 3131.07 2293.72 3131.16C2293.78 3131.16 2293.84 3131.16 2293.9 3131.16C2309.92 3131.16 2329.94 3118.95 2338.69 3091.58C2340.44 3086.1 2345.25 3082.16 2350.97 3081.53C2356.64 3080.88 2362.25 3083.66 2365.17 3088.62C2374.93 3105.18 2390.41 3113.83 2407.82 3112.3C2429.06 3110.45 2447.87 3094.33 2456.9 3070.23C2458.72 3065.38 2462.97 3061.86 2468.08 3060.98C2473.21 3060.09 2478.37 3061.98 2481.71 3065.93C2503.08 3091.18 2541.69 3102.96 2569.58 3092.74C2594.47 3083.63 2607.62 3059.11 2607.62 3021.84C2607.62 3015.45 2611.77 3009.81 2617.87 3007.91C2623.96 3006.02 2630.59 3008.29 2634.22 3013.54C2656.24 3045.38 2667.24 3045.96 2670.07 3045.38C2673.37 3044.71 2690.69 3037.37 2706.83 2958.92C2707.88 2953.78 2711.61 2949.61 2716.58 2947.98C2721.57 2946.36 2727.03 2947.52 2730.92 2951.03C2760.28 2977.61 2770.17 2973.92 2771.21 2973.42C2772.8 2972.63 2786.65 2963.69 2781.15 2891.59C2780.82 2887.24 2782.45 2882.96 2785.61 2879.94C2788.76 2876.92 2793.08 2875.47 2797.44 2875.99C2807.92 2877.29 2815.85 2866.87 2819.69 2856.72C2827.09 2837.19 2824.2 2808.67 2800.39 2792.2C2796.12 2789.25 2793.74 2784.26 2794.14 2779.09C2794.53 2773.91 2797.64 2769.34 2802.3 2767.07C2826.11 2755.48 2839.4 2738.78 2838.76 2721.27C2838.12 2703.38 2823.03 2686.83 2798.41 2676.99C2792.99 2674.82 2789.38 2669.62 2789.24 2663.78C2789.1 2657.94 2792.45 2652.59 2797.76 2650.16C2834.77 2633.25 2848.66 2619.74 2833.17 2584.4C2830.8 2578.98 2831.93 2572.66 2836.04 2568.41C2840.14 2564.16 2846.41 2562.8 2851.91 2564.97C2879.21 2575.77 2904 2581.35 2925.59 2581.55C2929.99 2581.6 2934.15 2583.62 2936.88 2587.07C2939.62 2590.52 2940.66 2595.02 2939.7 2599.32C2931.73 2635.11 2937.89 2663.72 2957.04 2679.88C2971.33 2691.94 2991.43 2695.31 3008.25 2688.44C3023.5 2682.21 3032.84 2668.84 3034.54 2650.79C3037.38 2620.58 3062.89 2619.02 3073.82 2618.36C3189.37 2611.24 3241.58 2563.2 3241.2 2521.57C3240.85 2484.37 3200.78 2456.67 3143.75 2454.22C3014.53 2450.45 2907.33 2416.97 2833.94 2357.42C2829.45 2353.77 2827.53 2347.82 2829.06 2342.23C2830.59 2336.65 2835.27 2332.5 2841 2331.65C2850.34 2330.26 2856.81 2324.86 2859.22 2316.45C2863.6 2301.19 2855.57 2274.04 2819.9 2243.59C2816.81 2240.96 2814.96 2237.16 2814.79 2233.11L2801.41 1916.88C2801.26 1913.36 2802.38 1909.92 2804.57 1907.17C2826.05 1880.2 2847.19 1849.21 2841.26 1823.88C2837.11 1806.12 2819.16 1789.68 2787.9 1775.01C2783.25 1772.83 2780.09 1768.37 2779.58 1763.27C2779.06 1758.16 2781.26 1753.16 2785.37 1750.1C2806.48 1734.33 2834.43 1711.07 2833.3 1691.18C2832.39 1675.21 2812.11 1660.16 2795.26 1650.35C2791.15 1647.95 2788.46 1643.69 2788.07 1638.94C2787.67 1634.19 2789.62 1629.55 2793.29 1626.51C2811.17 1611.65 2820.25 1597.01 2820.28 1583.02C2820.31 1566.63 2808.35 1548.29 2784.73 1528.52C2780.72 1525.16 2778.81 1519.93 2779.73 1514.78C2780.64 1509.64 2784.22 1505.37 2789.14 1503.6C2803.6 1498.37 2814.18 1482.89 2814.85 1465.96C2815.25 1455.77 2812.32 1437.04 2788.06 1426.01C2782.85 1423.64 2779.5 1418.45 2779.5 1412.73C2779.5 1407 2782.85 1401.81 2788.06 1399.44C2805.82 1391.37 2815.39 1378.19 2815.03 1362.35C2814.62 1344.62 2801.89 1328.18 2782.6 1320.46C2778.12 1318.67 2774.81 1314.78 2773.77 1310.06C2772.73 1305.35 2774.08 1300.43 2777.39 1296.91L2780.91 1293.18C2816.14 1255.91 2846.57 1223.73 2776.02 1121.83C2772.77 1117.14 2772.55 1110.98 2775.47 1106.07C2801.81 1061.71 2800.46 1016.64 2784.1 1000.33C2767.48 983.744 2736.86 998.062 2720.09 1008.08C2716.3 1010.35 2711.69 1010.77 2707.55 1009.24C2703.41 1007.71 2700.19 1004.39 2698.78 1000.21C2693.31 983.985 2683.79 963.943 2669.48 960.589C2655.43 957.298 2634.78 968.741 2609.82 993.704C2606.68 996.853 2602.24 998.392 2597.84 997.884C2593.41 997.379 2589.46 994.881 2587.11 991.102C2569.21 962.362 2551.39 947.11 2534.15 945.772C2517.33 944.476 2497.95 956.224 2476.75 980.76C2474.17 983.751 2470.48 985.567 2466.54 985.794C2462.59 986.004 2458.73 984.632 2455.82 981.954C2404.55 934.696 2358.37 933.316 2306.07 977.503C2300.55 982.166 2292.45 982.093 2287.01 977.32C2205.21 905.467 2159.57 937.371 2132.35 967.608C2129.72 970.535 2126.01 972.273 2122.08 972.427C2118.17 972.581 2114.31 971.138 2111.45 968.423C2085.3 943.579 2054.36 931.306 2030.75 936.358C2012.98 940.169 1999.36 953.35 1990.27 975.535C1988.43 980.027 1984.48 983.311 1979.73 984.297C1974.99 985.276 1970.05 983.838 1966.57 980.447C1919.66 934.622 1840.41 947.725 1793.89 986.123C1787.88 991.089 1779.02 990.452 1773.78 984.663C1753.75 962.541 1726.4 951.169 1700.61 954.282C1672.43 957.666 1647.87 977.282 1629.59 1011.02C1627.19 1015.43 1622.71 1018.3 1617.7 1018.63C1612.8 1018.96 1607.87 1016.68 1604.93 1012.61C1588.78 990.297 1568.97 989.176 1555.21 992.179C1531.87 997.255 1510.33 1017.45 1506.18 1038.16C1505.23 1042.86 1502.05 1046.79 1497.66 1048.69C1493.27 1050.59 1488.23 1050.22 1484.15 1047.69C1462.74 1034.36 1440.86 1033.22 1424.13 1044.56C1406.63 1056.41 1398.13 1079.76 1402.46 1104.05C1403.42 1109.43 1401.3 1114.89 1396.96 1118.21C1392.62 1121.53 1386.79 1122.15 1381.85 1119.8C1366 1112.31 1345.06 1120.63 1330.9 1140.06C1313.58 1163.81 1307.83 1202.8 1343.62 1240.98C1346.92 1244.5 1348.27 1249.42 1347.22 1254.13C1346.18 1258.83 1342.87 1262.72 1338.39 1264.51C1312.56 1274.85 1297.22 1295.58 1296.3 1321.4C1295.41 1346.59 1309.12 1369.8 1331.22 1380.52C1336.79 1383.22 1340.05 1389.14 1339.35 1395.29C1338.66 1401.44 1334.16 1406.48 1328.12 1407.88C1314.28 1411.06 1303.62 1424.97 1299.61 1445.08C1294.96 1468.4 1299.98 1500.67 1322 1516.39C1326.14 1519.35 1328.44 1524.25 1328.07 1529.32C1327.7 1534.4 1324.72 1538.91 1320.2 1541.24C1280.5 1561.69 1272.68 1601.54 1271.56 1623.48C1269.07 1672.04 1293.04 1721.41 1331.21 1746.31C1336.56 1749.79 1339.02 1756.35 1337.29 1762.49C1335.56 1768.63 1330.04 1772.94 1323.67 1773.12C1302.44 1773.74 1288.97 1795.45 1285.44 1815.36C1281.29 1838.74 1288.33 1868.32 1320.54 1881.21C1325.75 1883.29 1329.3 1888.17 1329.68 1893.77C1330.06 1899.36 1327.2 1904.68 1322.31 1907.45C1316.38 1910.94 1287.37 1930.62 1308.56 1970.63C1311.22 1975.66 1310.72 1981.78 1307.27 1986.3C1307.18 1986.44 1285.85 2017.2 1300.2 2084.72C1316.4 2160.9 1339.99 2409.9 1340.99 2420.47C1341.41 2424.99 1339.71 2429.45 1336.39 2432.53C1336.36 2432.56 1324.39 2444.31 1324.59 2461.77C1324.77 2476.8 1333.63 2492.49 1350.93 2508.39C1353.86 2511.08 1355.56 2514.86 1355.64 2518.83C1355.72 2522.81 1354.18 2526.64 1351.37 2529.46C1351.16 2529.67 1326.83 2554.65 1330.85 2580.12C1333.22 2595.09 1345.46 2608.4 1367.23 2619.68C1371.76 2622.03 1374.74 2626.58 1375.07 2631.67C1375.41 2636.76 1373.07 2641.66 1368.9 2644.59C1349.83 2658.01 1311.98 2692.83 1316.75 2714.8C1319.69 2728.4 1341.1 2739.62 1377.03 2746.39C1381.98 2747.32 1386.09 2750.74 1387.92 2755.43C1389.75 2760.12 1389.04 2765.42 1386.03 2769.45C1385.86 2769.69 1365.57 2797.84 1372.12 2828.86C1376.48 2849.53 1391.95 2867.64 1418.1 2882.71C1422.23 2885.09 1424.94 2889.34 1425.35 2894.1C1425.76 2898.85 1423.83 2903.51 1420.16 2906.57C1411.41 2913.92 1389.47 2937.22 1393.23 2956.25C1396.56 2973.07 1420.27 2983.93 1439.57 2990.08C1444.72 2991.72 1448.54 2996.07 1449.5 3001.38C1450.47 3006.7 1448.42 3012.11 1444.18 3015.45C1417.06 3036.83 1410.11 3055.83 1412.4 3065.61C1413.42 3069.99 1416.36 3072.73 1421.14 3073.74C1431.94 3076.03 1451.8 3069.16 1472.14 3042.24C1476.36 3036.66 1483.92 3034.85 1490.19 3037.92C1496.47 3040.98 1499.69 3048.07 1497.88 3054.81C1488.52 3089.77 1503.34 3116.46 1522.04 3123.83C1543.74 3132.37 1568.55 3116.29 1586.84 3081.89C1589.89 3076.16 1596.35 3073.13 1602.7 3074.45C1609.06 3075.77 1613.77 3081.14 1614.28 3087.6C1616.19 3112.12 1631.36 3125.52 1645.55 3127.92C1663.36 3130.93 1680.28 3118.18 1690.96 3093.82C1693.07 3089.01 1697.61 3085.7 1702.85 3085.17C1708.03 3084.63 1713.19 3086.95 1716.23 3091.25C1733.73 3115.93 1750.5 3128.44 1766.1 3128.44C1766.16 3128.44 1766.22 3128.44 1766.29 3128.44C1782.86 3128.33 1800.94 3114.23 1820.01 3086.54C1822.7 3082.64 1827.12 3080.28 1831.86 3080.23C1836.81 3080.15 1841.09 3082.43 1843.86 3086.27C1864.65 3115.04 1889.1 3130.74 1914.56 3131.64C1938.61 3132.46 1962.86 3119.98 1982.6 3096.4C1986.35 3091.92 1992.4 3090.11 1997.99 3091.79C2003.58 3093.47 2007.64 3098.32 2008.3 3104.12C2010.95 3127.42 2020.01 3142.6 2033.8 3146.85C2050.82 3152.1 2073.67 3141.09 2093.41 3118.14C2096.19 3114.91 2100.23 3113.06 2104.48 3113.06Z" fill="#650000"/>
<path d="M2835.29 2355.81C2830.52 2353.63 2826.55 2350.37 2822.93 2346.76C2819.29 2343.17 2816.26 2338.93 2813.36 2334.65C2807.64 2326.01 2802.78 2316.73 2800.03 2306.22C2799.75 2305.16 2800.38 2304.08 2801.43 2303.81C2801.89 2303.69 2802.37 2303.74 2802.77 2303.93C2812.53 2308.42 2820.93 2313.52 2829.15 2318.56C2833.23 2321.13 2837.33 2323.56 2840.99 2326.46C2844.67 2329.34 2848.16 2332.4 2850.99 2336.36L2851.14 2336.57C2855.29 2342.37 2853.95 2350.43 2848.16 2354.57C2844.27 2357.35 2839.35 2357.65 2835.29 2355.81Z" fill="#650000"/>
<path d="M2667.45 2452.45C2685.48 2459.34 2699.81 2470.38 2714.23 2481.32C2721.54 2486.66 2728.88 2491.96 2736.36 2497.04C2743.69 2502.32 2751.22 2507.29 2758.73 2512.27C2773.74 2522.26 2789.13 2531.5 2804.58 2540.49C2820.11 2549.35 2835.95 2557.31 2851.93 2564.97L2852.33 2565.17C2859.61 2568.65 2862.68 2577.37 2859.19 2584.65C2855.94 2591.42 2848.09 2594.52 2841.16 2592.1C2823.06 2585.71 2805.58 2577.82 2788.9 2568.76C2772.26 2559.66 2756.12 2549.74 2740.69 2538.95C2733 2533.52 2725.31 2528.08 2717.86 2522.37C2710.4 2516.65 2703.11 2510.74 2695.87 2504.78C2681.3 2492.97 2667.23 2480.48 2658.03 2462.53C2656.19 2458.93 2657.61 2454.52 2661.21 2452.67C2663.13 2451.69 2665.28 2451.63 2667.14 2452.34L2667.45 2452.45Z" fill="#650000"/>
<g opacity="0.6">
<path d="M1448.1 1190.96C1447.91 1176.35 1451.3 1160.67 1461.1 1147.73C1470.49 1134.67 1487.5 1125.66 1505.03 1126.29C1522.59 1126.58 1538.92 1134.91 1551.14 1146.03C1557.33 1151.6 1562.62 1157.94 1567.33 1164.57C1571.96 1171.25 1575.72 1178.35 1579.15 1185.54L1553.16 1187.44C1556.19 1174.78 1562.97 1161.87 1573.78 1152.56C1584.57 1143.32 1598.35 1138.17 1611.91 1137.36C1625.48 1136.57 1639.18 1139.36 1651.24 1146.46C1657.25 1150 1662.86 1154.63 1667.44 1160.42C1671.98 1166.22 1675.37 1173.23 1676.92 1180.57L1650.99 1179.37C1656.65 1163.91 1666.73 1150.93 1679.01 1141.29C1691.25 1131.65 1706.05 1125.03 1721.82 1123.63C1729.67 1122.9 1737.74 1123.69 1745.28 1126.03C1752.84 1128.39 1759.67 1132.62 1765.23 1137.74C1776.51 1148.13 1782.01 1162.09 1784.6 1175.55C1781.2 1169.49 1777.44 1163.81 1773.23 1158.71C1769 1153.63 1763.97 1149.47 1758.74 1146.26C1748.11 1139.83 1735.86 1138.9 1724.61 1141.71C1713.29 1144.56 1702.84 1150.96 1694.42 1159.12C1686.03 1167.35 1679.67 1177.43 1676.58 1187.94C1674.51 1195.01 1667.11 1199.05 1660.04 1196.98C1655.56 1195.67 1652.3 1192.21 1651.04 1188.06L1650.64 1186.74C1648.76 1180.38 1643.96 1174.98 1637.13 1171.26C1630.32 1167.64 1621.89 1165.77 1613.84 1166.43C1605.79 1167 1598.2 1169.74 1592.42 1174.59C1586.46 1179.27 1582.43 1186.27 1579.8 1194.46L1579.49 1195.45C1577.19 1202.63 1569.5 1206.59 1562.32 1204.29C1558.31 1203.01 1555.28 1199.98 1553.81 1196.36C1548.92 1184.14 1542.58 1172.62 1534.12 1163.4C1525.79 1154.13 1515.21 1147.28 1503.55 1145.24C1491.97 1143.2 1479.27 1146.53 1469.35 1155.29C1464.45 1159.64 1460.11 1165.03 1456.59 1171.11C1453.12 1177.22 1450.31 1183.91 1448.1 1190.96Z" fill="#650000"/>
<path d="M1949.2 1182.04C1946.4 1169.28 1952.19 1155.2 1961.94 1145.57C1971.73 1135.82 1985.27 1129.77 1999.58 1129C2013.76 1128.09 2029.35 1133.23 2039.41 1144.15C2049.59 1154.99 2052.66 1169.85 2048.93 1182.04C2040.63 1172.1 2032.98 1165.4 2025.12 1162.1C2017.37 1158.73 2009.53 1157.79 2001.11 1158.14C1992.72 1158.59 1984 1160.49 1975.39 1164.07C1966.72 1167.7 1958.21 1172.85 1949.2 1182.04Z" fill="#650000"/>
<path d="M2134.88 1348.33C2136.19 1332.51 2144.79 1316.67 2159.59 1306.5C2166.95 1301.45 2175.84 1297.98 2185.43 1296.98C2195.01 1296.08 2205.25 1297.91 2214.32 1302.64C2218.73 1305.2 2222.95 1308.21 2226.42 1311.93C2229.96 1315.59 2232.76 1319.82 2234.97 1324.19C2239.33 1333.03 2240.82 1342.49 2240.35 1351.22C2239.2 1368.77 2231.77 1383.78 2220.83 1395.29C2220.53 1379.36 2220.52 1365.02 2217.46 1352.93C2215.89 1346.96 2213.73 1341.72 2210.79 1337.67C2207.89 1333.61 2204.51 1330.52 2200.5 1328.35C2196.47 1326.21 2191.79 1324.94 2186.62 1324.58C2181.43 1324.33 2175.84 1325.09 2170.09 1326.82C2158.48 1330.26 2146.99 1337.97 2134.88 1348.33Z" fill="#650000"/>
<path d="M2359.9 1178.59C2363.48 1167.86 2368.6 1157.63 2376.14 1148.34C2380.04 1143.81 2384.34 1139.27 2390 1135.83C2395.35 1132.02 2402.22 1129.83 2409.36 1128.63C2412.9 1128.56 2416.69 1128.26 2420.2 1128.84C2423.64 1129.52 2427.45 1129.91 2430.52 1131.36C2437.18 1133.64 2442.9 1137.08 2448.1 1140.85C2450.58 1142.81 2453.1 1144.77 2455.54 1146.79L2461.97 1153.31C2466.37 1157.63 2469.64 1162.43 2473.45 1167.05L2447.98 1170.65C2452.66 1157.51 2460.85 1144.79 2472.5 1135.65C2484.1 1126.51 2498.75 1121.47 2512.93 1121.41C2527.14 1121.18 2540.75 1125.66 2551.75 1133.01C2562.75 1140.39 2571.29 1150.68 2575.78 1162.17C2565.99 1154.66 2555.79 1149.27 2545.34 1146.36C2534.95 1143.47 2524.45 1142.83 2514.93 1144.81C2505.43 1146.79 2497.04 1151.04 2490.46 1157.21C2483.79 1163.3 2478.9 1171.34 2475.34 1180.45C2472.38 1188.04 2463.82 1191.8 2456.23 1188.83C2453.65 1187.82 2451.51 1186.17 2449.93 1184.13L2449.87 1184.05C2443.83 1176.19 2437.89 1167.95 2431.12 1162.08C2424.37 1156.09 2417.55 1151.82 2410.22 1150.95C2402.88 1150.18 2393.98 1153.14 2385.37 1158.58C2376.68 1163.93 2368.44 1171.21 2359.9 1178.59Z" fill="#650000"/>
<path d="M2490.84 1293.12C2502.4 1290.06 2516.19 1290.66 2528.02 1298.08C2539.88 1305.27 2548.18 1319.13 2549.79 1333.4C2551.47 1347.69 2548.1 1361.86 2542.19 1374.03C2536.17 1386.21 2527.81 1396.66 2518.57 1405.86L2515.48 1382.51C2529.05 1389.86 2542.21 1399.49 2552 1412.95C2561.89 1426.15 2567.66 1443.7 2565.8 1460.77L2565.53 1463.94C2565.34 1464.99 2565.05 1466.02 2564.82 1467.05L2563.26 1473.19C2562.02 1477.19 2560 1480.88 2558.36 1484.62C2556.07 1488.03 2553.91 1491.5 2551.37 1494.55C2550.01 1496.03 2548.64 1497.47 2547.25 1498.87C2545.86 1500.27 2544.56 1501.73 2542.94 1502.85C2530.89 1512.76 2516.43 1518.1 2502.19 1519.35C2514.27 1511.61 2524.7 1502.78 2531.84 1492.41C2533.79 1489.97 2534.91 1487 2536.55 1484.5C2537.9 1481.81 2538.71 1478.93 2539.88 1476.3C2540.39 1473.43 2541.33 1470.74 2541.58 1467.96L2541.88 1463.81C2541.93 1463.13 2542.03 1462.46 2542.05 1461.78L2541.82 1459.73C2541.19 1448.88 2536.66 1438.82 2529.5 1430.14C2522.26 1421.47 2512.59 1414.24 2501.89 1408.07L2501.59 1407.9C2494.61 1403.88 2492.21 1394.96 2496.23 1387.98C2496.93 1386.77 2497.83 1385.65 2498.79 1384.72C2506.34 1377.5 2513.3 1369.85 2518.62 1361.39C2523.87 1352.94 2527.32 1343.73 2528.11 1334.45C2528.64 1325.25 2526.21 1316.02 2519.67 1308.45C2518.96 1307.38 2518.01 1306.57 2517.02 1305.77L2514.11 1303.18C2511.97 1301.68 2509.63 1300.34 2507.27 1298.82L2499.41 1295.56C2496.64 1294.76 2493.79 1294.04 2490.84 1293.12Z" fill="#650000"/>
<path d="M2497.33 1613.41C2509.22 1608.87 2523.17 1609.79 2535.56 1616.7C2538.67 1618.37 2541.45 1620.81 2544.3 1623.11C2546.86 1625.79 2549.4 1628.67 2551.46 1631.92C2553.29 1635.36 2555.35 1638.75 2556.23 1642.71C2556.77 1644.65 2557.19 1646.62 2557.62 1648.58C2557.81 1650.58 2557.87 1652.6 2557.94 1654.62C2558.21 1658.71 2557.17 1662.58 2556.37 1666.47C2556 1668.45 2555.12 1670.17 2554.35 1671.94C2553.55 1673.69 2552.79 1675.45 2551.88 1677.13C2549.86 1680.27 2547.59 1683.16 2545.26 1685.92C2542.71 1688.36 2539.98 1690.56 2537.29 1692.67C2525.95 1700.22 2513.17 1703.05 2500.57 1701.79C2508.71 1691.77 2516.21 1684.05 2521.41 1676.1C2526.71 1668.2 2528.84 1660.91 2528.76 1654.68C2528.72 1648.47 2526.88 1641.59 2521.28 1634.57C2515.9 1627.46 2507.75 1620.85 2497.33 1613.41Z" fill="#650000"/>
<path d="M2554.94 2523.78C2565.12 2527.32 2574.33 2534.27 2581.3 2543.5C2584.68 2548.2 2587.51 2553.57 2589.18 2559.67C2590.85 2565.73 2590.9 2572.6 2589.28 2579.13C2587.62 2585.66 2584.32 2591.72 2580.21 2596.66C2576.08 2601.61 2571.35 2605.71 2566.38 2609.19C2556.4 2616.01 2545.71 2620.64 2535.01 2624.24L2533.79 2598.59C2548.89 2601.03 2564.81 2607.36 2576.56 2620.03C2582.39 2626.25 2587.14 2633.84 2589.88 2642.19C2592.58 2650.54 2593.38 2659.47 2592.42 2668.01C2590.38 2685.22 2581.58 2700.06 2570.8 2711.08C2565.38 2716.63 2559.46 2721.43 2553.28 2725.62C2547.07 2729.77 2540.56 2733.15 2534 2736.26L2529.6 2710.98C2537.25 2712.08 2544.96 2713.97 2552.54 2717.05C2560.1 2720.11 2567.52 2724.68 2573.69 2731.03C2579.91 2737.33 2584.24 2745.8 2585.99 2754.38C2587.71 2763.02 2586.79 2771.6 2584.61 2779.25C2580.06 2794.67 2570.52 2806.71 2559.91 2816.37C2549.21 2826.07 2536.92 2833.33 2524.08 2838.59C2529.39 2834.1 2534.44 2829.45 2539.22 2824.66C2543.95 2819.81 2548.2 2814.61 2552.15 2809.35C2556.04 2804.06 2559.39 2798.46 2561.91 2792.69C2564.55 2787 2566.36 2781.08 2567.09 2775.36C2567.83 2769.65 2567.37 2764.15 2565.81 2759.44C2564.09 2754.77 2561.37 2750.87 2557.6 2747.73C2549.99 2741.49 2538.61 2738.43 2526.68 2737.54C2519.41 2736.99 2513.95 2730.65 2514.49 2723.38C2514.83 2718.75 2517.53 2714.85 2521.32 2712.77L2522.28 2712.26C2532.88 2706.55 2542.54 2699.64 2549.99 2691.49C2557.37 2683.35 2562.49 2673.93 2563.46 2664.6C2564.68 2655.29 2561.84 2646.35 2555.63 2639.2C2549.44 2632.02 2539.81 2626.97 2528.98 2624.52L2527.83 2624.26C2520.81 2622.68 2516.41 2615.71 2517.99 2608.69C2519.13 2603.66 2523.05 2599.97 2527.76 2598.87C2537.26 2596.67 2546.4 2593.71 2554.51 2589.73C2562.48 2585.66 2569.33 2580.46 2572.63 2573.56C2576.16 2566.79 2575.96 2557.51 2572.41 2548.51C2568.85 2539.54 2562.94 2530.86 2554.94 2523.78Z" fill="#650000"/>
<path d="M1831.76 2748.99C1825.46 2763.01 1820.22 2775.4 1818.8 2787.17C1817.13 2798.86 1819.21 2808.99 1824 2817.09C1828.91 2825.14 1836.87 2831.61 1847.88 2835.62C1858.91 2839.74 1872.26 2840.79 1887.63 2841.43C1876.67 2852.08 1861.26 2858.78 1844.16 2858.27C1835.67 2858.02 1826.87 2855.7 1818.87 2851.27C1810.89 2846.83 1803.82 2840.19 1798.97 2832.1C1794.2 2823.97 1791.6 2814.65 1791.44 2805.54C1791.22 2796.42 1793.4 2787.62 1797.08 2780.02C1804.48 2764.69 1817.36 2754.09 1831.76 2748.99Z" fill="#650000"/>
<path d="M2280.2 2675.12C2294.63 2668.89 2311.71 2667.93 2328.05 2674.27C2336.15 2677.45 2343.97 2682.68 2350.19 2689.92C2356.36 2697.21 2360.6 2706.56 2362.01 2716.33C2363.23 2726.12 2361.67 2735.95 2358.15 2744.42C2354.6 2752.91 2349.37 2760.15 2343.28 2765.95C2331.05 2777.56 2316.13 2784.31 2300.47 2786.21C2310.18 2773.74 2319.22 2762.87 2325.34 2751.63C2331.61 2740.5 2334.27 2729.59 2333.09 2720.22C2332.44 2715.51 2330.8 2711.03 2328.2 2706.63C2325.5 2702.29 2321.72 2698.14 2317.04 2694.32C2307.62 2686.56 2294.86 2680.92 2280.2 2675.12Z" fill="#650000"/>
</g>
<g opacity="0.3">
<path d="M3074.72 2632.93C3064.41 2633.56 3057.01 2635.07 3052.88 2640.66C2998.19 2554.84 2925.99 2623 2923.66 2625.24C2924.58 2608.12 2925.46 2596.15 2925.46 2596.15C2898.02 2591.62 2873.01 2585.49 2850.54 2578.49L2859.25 2583.21C2855.01 2581.8 2850.78 2580.19 2846.55 2578.54C2868.2 2627.97 2838.86 2647.43 2803.83 2663.43C2866.01 2688.29 2871.94 2749.4 2808.7 2780.19C2859.68 2815.46 2836.38 2895.35 2795.71 2890.48C2803.3 2989.92 2778.44 3013.72 2721.13 2961.85C2696.22 3082.99 2661.29 3078.32 2622.22 3021.84C2622.22 3125.27 2527.84 3127.9 2479.53 3084.5C2563.84 3072.53 2524.09 3007.25 2524.09 3007.25C2593.03 2960.2 2544.38 2914.81 2544.38 2914.81C2594.63 2858.03 2538.1 2829.14 2538.1 2829.14C2614.77 2756.21 2545.4 2719.62 2545.4 2719.62C2601.35 2646.65 2549.1 2605.29 2549.1 2605.29C2593.81 2569.15 2581.45 2544.67 2568.27 2532.41C2566.37 2532.12 2564.32 2531.44 2562.04 2530.47C2537.96 2476.95 2486.48 2516.6 2486.48 2516.6C2450.09 2478.36 2419.78 2528.42 2419.78 2528.42C2372.64 2480.11 2342.87 2539.37 2342.87 2539.37C2301.51 2497.24 2266.58 2551.63 2266.58 2551.63C2208.54 2507.12 2177.36 2561.07 2177.36 2561.07C2146.85 2521.18 2105.6 2566.91 2105.6 2566.91C2069.01 2519.42 2035.1 2571.19 2035.1 2571.19C1979.15 2515.82 1932.89 2568.46 1927.44 2575.13H1926.22C1889.15 2538.45 1820.41 2574.25 1817.54 2575.76H1817.39C1777.25 2542.09 1733.47 2573.81 1733.47 2573.81C1718 2524.53 1668.76 2568.66 1666.77 2570.46C1666.72 2570.46 1666.67 2570.46 1666.67 2570.46C1640.5 2538.2 1599 2563.99 1597.39 2565.01C1597.39 2565.01 1597.35 2565.06 1597.3 2565.01C1557.26 2508.48 1504.86 2553.67 1504.86 2553.67C1470.76 2507.55 1429.99 2539.37 1429.99 2539.37C1406.25 2474.03 1356.48 2516.65 1356.48 2516.65C1353.7 2515.48 1350.98 2514.32 1348.35 2513.15C1332.54 2497.38 1319.94 2479.73 1310.02 2460.85C1310.21 2436.91 1326.46 2421.83 1326.46 2421.83C1510.31 2504.39 2065.27 2502.64 2415.07 2433.8C2415.11 2433.8 2415.21 2433.8 2415.26 2433.75C2421.78 2432.49 2428.25 2431.17 2434.62 2429.86C2465.57 2423.39 2494.71 2416.38 2521.66 2408.84C2534.65 2402.71 2547.59 2396.48 2560.48 2390.16C2655.89 2343.55 2747.98 2293.2 2836.82 2239.15C2838.47 2240.75 2840.18 2242.31 2841.68 2243.92C2843.05 2245.28 2844.36 2246.64 2845.62 2248C2845.82 2248.2 2846.01 2248.39 2846.21 2248.64C2847.38 2249.9 2848.49 2251.12 2849.57 2252.38C2850.1 2252.97 2850.64 2253.6 2851.12 2254.18C2852.1 2255.35 2853.02 2256.52 2853.94 2257.68C2855.4 2259.49 2856.77 2261.33 2858.08 2263.13C2859 2264.5 2859.88 2265.81 2860.76 2267.12C2861.73 2268.63 2862.65 2270.14 2863.53 2271.6C2864.4 2273.11 2865.23 2274.57 2866.01 2276.03C2866.69 2277.34 2867.37 2278.65 2867.91 2279.97C2869.41 2283.13 2870.68 2286.24 2871.65 2289.31C2872.04 2290.43 2872.38 2291.55 2872.67 2292.66C2872.77 2293 2872.87 2293.39 2872.97 2293.73C2873.26 2294.81 2873.5 2295.88 2873.7 2296.95C2873.94 2298.02 2874.13 2299.09 2874.28 2300.16C2874.33 2300.4 2874.33 2300.64 2874.38 2300.89C2874.57 2302.15 2874.72 2303.37 2874.77 2304.63C2874.86 2305.85 2874.91 2307.07 2874.91 2308.28C2874.91 2313.2 2874.18 2317.77 2872.82 2321.9H2872.77C2868.49 2335.04 2857.74 2343.94 2843.14 2346.08C2852.53 2353.72 2862.51 2360.87 2872.97 2367.54C2862.89 2366.56 2853.55 2366.08 2844.8 2366.08C2805.56 2366.08 2779.26 2375.43 2761.9 2389.5C2736.09 2410.41 2736.82 2450.15 2762.93 2470.68C2886.42 2567.81 3254.86 2616.9 3221.55 2462.5C3292.48 2511.3 3257.79 2621.64 3074.72 2632.93Z" fill="#650000"/>
</g>
<g opacity="0.3">
<path d="M2815.99 1916.26L2829.37 2232.48C2832 2234.72 2834.48 2236.96 2836.81 2239.15C2747.98 2293.2 2655.88 2343.55 2560.48 2390.16L2554.93 2061.82C2585 1998.57 2554.01 1972.59 2554.01 1972.59C2596.14 1922.34 2554.01 1888.28 2554.01 1888.28C2583.15 1842.89 2554.01 1811.56 2554.01 1811.56C2586.41 1703.99 2535.76 1632.96 2535.76 1632.96C2557.22 1611.22 2532.99 1576.09 2532.99 1576.09C2571.13 1529.87 2529.1 1505.26 2529.1 1505.26C2577.07 1437.68 2522.43 1393.65 2522.43 1393.65C2551.58 1306.91 2509.74 1295.72 2509.74 1295.72C2542.38 1200.17 2479.48 1151.86 2479.48 1151.86C2511.25 1125.05 2539.95 1127.97 2566.51 1151.86C2566.71 1104.81 2592.3 1095.03 2640.85 1118.77C2638.42 1052.32 2691.93 1071.78 2691.93 1071.78C2762.48 946.063 2807.28 1013.15 2807.28 1013.15C2807.28 1013.15 2807.28 1013.15 2807.33 1013.15C2815.02 1040.2 2808.6 1078.83 2788.02 1113.52C2867.76 1228.67 2825.97 1266.57 2788.02 1306.9C2836.67 1326.36 2847.62 1388.39 2794.1 1412.72C2847.62 1437.04 2834.48 1502.72 2794.1 1517.32C2849.71 1563.88 2844.36 1603.04 2802.61 1637.73C2878.95 1682.2 2846.89 1722.38 2794.1 1761.79C2887.7 1805.72 2860.6 1860.21 2815.99 1916.26Z" fill="#650000"/>
</g>
<path d="M3160.49 1989.09C3151.39 2013.51 3135.24 2034.67 3114.46 2050.43C2932.85 2187.92 2735.42 2307.65 2521.65 2408.84C2494.7 2416.38 2465.56 2423.39 2434.62 2429.86C2428.25 2431.17 2421.77 2432.49 2415.26 2433.75C2415.21 2433.8 2415.11 2433.8 2415.06 2433.8C2065.26 2502.64 1510.31 2504.39 1326.45 2421.83C1198.36 2293.69 1280.63 2041.24 1280.63 2041.24C1280.63 2041.24 1290.79 2135.38 1427.02 2157.8C1670.12 2204.17 2124.18 2203.34 2429.61 2127.15C2452.72 2121.41 2475.24 2113.78 2497.04 2104.34H2497.09C2516.21 2096.12 2534.69 2086.53 2552.55 2075.73L2815.99 1916.25C2935.91 1831.46 3047.62 1746.12 3141.95 1659.62C3199.7 1716.79 3201.01 1880.74 3160.49 1989.09Z" fill="#6D445B"/>
<g opacity="0.55">
<path d="M1337.11 2426.36C1333.41 2424.9 1329.86 2423.39 1326.45 2421.83C1198.36 2293.69 1280.63 2041.24 1280.63 2041.24C1280.63 2041.24 1283.64 2069.31 1308.7 2098.45C1293.47 2158.63 1262.87 2319.47 1337.11 2426.36Z" fill="white"/>
</g>
<g opacity="0.55">
<path d="M2540.92 2133.63C2537.9 2135.04 2534.89 2136.4 2531.82 2137.71H2531.77C2509.98 2147.15 2487.45 2154.79 2464.34 2160.53C2158.91 2236.72 1704.86 2237.54 1461.75 2191.18C1393.2 2179.89 1356.62 2150.46 1337.16 2123.99C1358.27 2138.64 1387.32 2151.29 1427.01 2157.8C1670.12 2204.17 2124.18 2203.34 2429.61 2127.16C2452.72 2121.41 2475.24 2113.78 2497.04 2104.34H2497.09C2516.74 2105.75 2531.19 2116.6 2540.92 2133.63Z" fill="white"/>
</g>
<path d="M1829.68 2499.25C1599.2 2499.25 1410.95 2475.76 1320.48 2435.15C1318.87 2434.42 1317.39 2433.41 1316.14 2432.15C1183.24 2299.22 1263.28 2047.35 1266.75 2036.69C1268.88 2030.15 1275.31 2025.98 1282.14 2026.7C1288.98 2027.41 1294.4 2032.81 1295.14 2039.65C1295.54 2042.96 1306.69 2123.22 1429.39 2143.39C1667.99 2188.88 2116.64 2190.17 2426.09 2113C2467.53 2102.67 2507.54 2085.93 2545 2063.25L2807.99 1904.04C2944.75 1807.32 3047.74 1726.23 3132.09 1648.87C3137.82 1643.61 3146.69 1643.77 3152.22 1649.25C3215.24 1711.66 3215.78 1882.85 3174.17 1994.21C3164.18 2020.94 3146.58 2044.4 3123.28 2062.05C2940.61 2200.36 2740.3 2321.47 2527.9 2422.03C2527.16 2422.39 2526.38 2422.68 2525.59 2422.9C2367.3 2467.15 2124.75 2495.57 1876.76 2498.93C1860.9 2499.14 1845.17 2499.25 1829.68 2499.25ZM1334.9 2409.61C1533.25 2496.16 2181.49 2488.38 2516.54 2395.12C2726.71 2295.52 2924.91 2175.63 3105.66 2038.77C3124.54 2024.47 3138.78 2005.53 3146.82 1983.99C3186.09 1878.93 3182.12 1738.41 3140.62 1680.57C3057.38 1755.8 2956.45 1834.82 2824.42 1928.17C2824.14 1928.37 2823.85 1928.56 2823.55 1928.74L2560.12 2088.22C2520.15 2112.42 2477.43 2130.29 2433.15 2141.33C2119.87 2219.45 1665.55 2218.14 1424.29 2172.13C1342.2 2158.64 1302.52 2120.4 1283.45 2088.96C1267.24 2164.24 1247.67 2319.89 1334.9 2409.61Z" fill="#650000"/>
<path d="M2035.75 2052.5C2053.48 2109.74 2034.07 2178.12 1985.35 2217.9C1968.64 2231.55 1948.42 2241.84 1925.11 2247.14C1881.41 2257.42 1841.4 2247.07 1809.52 2224.66C1759.43 2189.46 1729.48 2124.49 1737 2063.25C1739.03 2046.47 1757.34 2036.99 1772.16 2045.16C1825.09 2074.41 1916.18 2067.81 1974.55 2029.54C1997.22 2014.7 2027.73 2026.6 2035.75 2052.5Z" fill="#650000"/>
<path d="M1985.34 2217.9C1968.63 2231.55 1948.41 2241.84 1925.1 2247.14C1881.41 2257.42 1841.39 2247.07 1809.52 2224.66C1838.95 2145.55 1953.36 2133.25 1985.34 2217.9Z" fill="#ED4425"/>
<path d="M1891.18 2265.75C1852.58 2265.75 1815.8 2251.38 1784.92 2223.7C1739.88 2183.32 1715.37 2119.64 1722.5 2061.48C1724.07 2048.73 1731.82 2037.64 1743.24 2031.81C1754.6 2026.01 1768.05 2026.23 1779.2 2032.39C1827.55 2059.09 1913.33 2052.2 1966.54 2017.34C1980.92 2007.91 1998.55 2005.88 2014.88 2011.75C2031.47 2017.71 2044.48 2031.33 2049.7 2048.16C2063.2 2091.72 2057.07 2142.31 2033.29 2183.48C2010.13 2223.59 1972.88 2251.25 1928.4 2261.36C1915.9 2264.3 1903.44 2265.75 1891.18 2265.75ZM1760.72 2056.77C1758.93 2056.77 1757.45 2057.34 1756.52 2057.81C1755.18 2058.49 1752.02 2060.56 1751.48 2065.03C1745.47 2114.01 1766.25 2167.76 1804.41 2201.96C1837.79 2231.88 1879.46 2242.88 1921.76 2232.93C1921.8 2232.92 1921.84 2232.91 1921.88 2232.9C1958.37 2224.63 1988.96 2201.89 2008.02 2168.89C2027.8 2134.63 2032.95 2092.73 2021.82 2056.8C2019.26 2048.55 2013.13 2042.14 2005 2039.22C1997.36 2036.47 1989.18 2037.4 1982.54 2041.75C1920.3 2082.54 1822.76 2089.79 1765.09 2057.94C1763.53 2057.08 1762.04 2056.77 1760.72 2056.77Z" fill="#650000"/>
<path d="M2184.24 1981.4C2250.22 1981.4 2303.71 1903.73 2303.71 1807.92C2303.71 1712.11 2250.22 1634.43 2184.24 1634.43C2118.26 1634.43 2064.77 1712.11 2064.77 1807.92C2064.77 1903.73 2118.26 1981.4 2184.24 1981.4Z" fill="white"/>
<path d="M2184.24 1984.42C2116.7 1984.42 2061.76 1905.24 2061.76 1807.92C2061.76 1710.6 2116.7 1631.42 2184.24 1631.42C2251.78 1631.42 2306.73 1710.6 2306.73 1807.92C2306.73 1905.24 2251.78 1984.42 2184.24 1984.42ZM2184.24 1637.45C2120.02 1637.45 2067.78 1713.92 2067.78 1807.92C2067.78 1901.92 2120.02 1978.39 2184.24 1978.39C2248.46 1978.39 2300.7 1901.92 2300.7 1807.92C2300.7 1713.92 2248.46 1637.45 2184.24 1637.45Z" fill="#650000"/>
<path d="M2184.24 1981.4C2250.22 1981.4 2303.71 1903.73 2303.71 1807.92C2303.71 1712.11 2250.22 1634.43 2184.24 1634.43C2118.26 1634.43 2064.77 1712.11 2064.77 1807.92C2064.77 1903.73 2118.26 1981.4 2184.24 1981.4Z" fill="white"/>
<path d="M2184.24 1984.42C2116.7 1984.42 2061.76 1905.24 2061.76 1807.92C2061.76 1710.6 2116.7 1631.42 2184.24 1631.42C2251.78 1631.42 2306.73 1710.6 2306.73 1807.92C2306.73 1905.24 2251.78 1984.42 2184.24 1984.42ZM2184.24 1637.45C2120.02 1637.45 2067.78 1713.92 2067.78 1807.92C2067.78 1901.92 2120.02 1978.39 2184.24 1978.39C2248.46 1978.39 2300.7 1901.92 2300.7 1807.92C2300.7 1713.92 2248.46 1637.45 2184.24 1637.45Z" fill="#650000"/>
<path d="M2206.46 1951.87C2260.18 1951.87 2303.72 1888.64 2303.72 1810.65C2303.72 1732.66 2260.18 1669.43 2206.46 1669.43C2152.75 1669.43 2109.21 1732.66 2109.21 1810.65C2109.21 1888.64 2152.75 1951.87 2206.46 1951.87Z" fill="#650000"/>
<path d="M2184.25 1634.43C2250.23 1634.43 2303.72 1712.11 2303.72 1807.92C2303.72 1903.73 2250.23 1981.4 2184.25 1981.4C2118.26 1981.4 2064.77 1903.73 2064.77 1807.92C2064.77 1712.11 2118.26 1634.43 2184.25 1634.43ZM2184.25 1604.43C2142.17 1604.43 2103.39 1627.09 2075.06 1668.23C2049.08 1705.95 2034.77 1755.56 2034.77 1807.92C2034.77 1860.27 2049.08 1909.88 2075.06 1947.61C2103.39 1988.75 2142.17 2011.4 2184.25 2011.4C2226.33 2011.4 2265.1 1988.75 2293.43 1947.61C2319.41 1909.88 2333.72 1860.27 2333.72 1807.92C2333.72 1755.56 2319.41 1705.95 2293.43 1668.23C2265.1 1627.09 2226.33 1604.43 2184.25 1604.43Z" fill="#650000"/>
<path d="M2147.1 1807.92C2171.28 1807.92 2190.88 1788.32 2190.88 1764.14C2190.88 1739.97 2171.28 1720.37 2147.1 1720.37C2122.93 1720.37 2103.33 1739.97 2103.33 1764.14C2103.33 1788.32 2122.93 1807.92 2147.1 1807.92Z" fill="white"/>
<g opacity="0.3">
<path d="M3160.49 1989.1C3151.39 2013.5 3135.24 2034.65 3114.44 2050.45C2932.84 2187.9 2735.44 2307.65 2521.64 2408.85C2494.69 2416.4 2465.54 2423.4 2434.59 2429.85C2533.64 2399.3 2580.99 2217.45 2544.04 2139.55C2549.44 2136.6 2554.79 2133.5 2560.09 2130.3L2823.54 1970.85C2943.49 1886.05 3055.19 1800.7 3149.49 1714.2C3167.44 1732 3179.99 1760.15 3187.44 1793.75C3191.74 1858.35 3181.99 1931.55 3160.49 1989.1Z" fill="#650000"/>
</g>
<path d="M1136.64 2638.18C1062.88 2638.18 986.942 2619.24 926.195 2581.65C826.224 2519.79 779.515 2415.76 794.667 2288.73C794.701 2288.43 794.75 2288.13 794.804 2287.83C810.585 2201.56 871.821 2163.16 925.956 2163.16C926.371 2163.16 926.776 2163.16 927.191 2163.17C973.172 2163.66 1008.57 2192.04 1015.27 2233.79C1016.55 2241.75 1011.14 2249.24 1003.18 2250.51C995.252 2251.76 987.733 2246.38 986.453 2238.42C981.057 2204.84 950.989 2192.61 926.878 2192.35C926.57 2192.35 926.263 2192.35 925.955 2192.35C884.07 2192.35 836.468 2223.24 823.597 2292.65C806.204 2439.89 878.118 2517.58 941.551 2556.83C1048.52 2623.02 1212.84 2626.1 1307.86 2563.68C1314.59 2559.25 1323.65 2561.13 1328.07 2567.87C1332.5 2574.6 1330.62 2583.65 1323.88 2588.08C1272.93 2621.55 1205.75 2638.17 1136.64 2638.18Z" fill="#650000"/>
<path d="M950.242 2358.88C954.783 2348.74 959.527 2339.04 963.797 2329.28C968.096 2319.56 971.961 2309.85 975.252 2300.23C978.567 2290.6 980.955 2280.97 983.023 2271.7C985.142 2262.38 986.046 2253.41 987.129 2244.42L987.266 2243.3C988.233 2235.26 995.535 2229.53 1003.57 2230.49C1010.13 2231.28 1015.15 2236.3 1016.26 2242.48C1018.5 2255.07 1017.08 2267.86 1013.73 2279.44C1010.45 2291.13 1005.02 2301.77 998.976 2311.62C986.735 2331.3 971.259 2347.91 953.488 2361.5C952.548 2362.22 951.2 2362.04 950.48 2361.1C949.987 2360.46 949.916 2359.62 950.226 2358.92L950.242 2358.88Z" fill="#650000"/>
<path d="M1036.61 2385.74C1032.06 2385.74 1027.57 2383.61 1024.72 2379.62C1020.03 2373.06 1021.55 2363.95 1028.11 2359.26C1043.1 2348.56 1055.24 2315.91 1048.44 2289.87C1042.94 2268.8 1026.53 2256.62 999.663 2253.66C991.65 2252.78 985.869 2245.56 986.753 2237.55C987.632 2229.54 994.902 2223.72 1002.86 2224.64C1055.47 2230.44 1071.7 2263.38 1076.69 2282.49C1086.94 2321.79 1068.62 2366.2 1045.08 2383.01C1042.51 2384.85 1039.55 2385.74 1036.61 2385.74Z" fill="#650000"/>
<path d="M1145.97 2397.99C1145.49 2397.99 1145.03 2397.99 1144.56 2397.99C1099.32 2397.59 1061.79 2380.52 1044.17 2352.33C1039.89 2345.49 1041.97 2336.49 1048.81 2332.21C1055.64 2327.94 1064.65 2330.02 1068.92 2336.86C1081.05 2356.26 1110.12 2368.5 1144.81 2368.8C1181.5 2369.25 1230.05 2354.84 1256.69 2313.82C1261.08 2307.07 1270.11 2305.14 1276.87 2309.53C1283.63 2313.92 1285.56 2322.96 1281.17 2329.72C1248.45 2380.1 1190.17 2397.99 1145.97 2397.99Z" fill="#650000"/>
<g opacity="0.3">
<path d="M1326.46 2421.83L1315.86 2575.86C1152.97 2682.89 770.239 2616.78 809.16 2290.48C817.236 2246.3 838.496 2215.94 864.086 2197.94C815.776 2549.05 1235.19 2639.11 1315.22 2402.27L1326.46 2421.83Z" fill="#650000"/>
</g>
<path d="M2364.64 3321.24C2357.54 3321.24 2351.32 3316.05 2350.23 3308.82L2322.74 3126.47C2321.54 3118.5 2327.03 3111.07 2335 3109.87C2342.98 3108.64 2350.4 3114.16 2351.61 3122.12L2379.09 3304.47C2380.3 3312.44 2374.81 3319.87 2366.84 3321.07C2366.1 3321.18 2365.36 3321.24 2364.64 3321.24Z" fill="#650000"/>
<path d="M2364.75 3291.18C2373.42 3288.08 2382.53 3286.48 2391.57 3286.04C2396.09 3285.73 2400.6 3285.84 2405.07 3286.18C2409.54 3286.45 2413.96 3287.01 2418.31 3287.87C2427.03 3289.41 2435.43 3292.05 2443.46 3295.21C2451.5 3298.3 2459.06 3303.01 2464.32 3311.64C2464.75 3312.35 2464.52 3313.27 2463.81 3313.7C2463.69 3313.78 2463.52 3313.85 2463.39 3313.88C2453.68 3316.37 2445.92 3315.84 2438.32 3314.83C2430.72 3313.88 2423.18 3313.56 2415.81 3313.52C2412.11 3313.58 2408.46 3313.69 2404.84 3313.92C2403.04 3314.04 2401.24 3314.17 2399.46 3314.42C2397.66 3314.57 2395.89 3314.74 2394.13 3315.02C2387.06 3315.99 2380.2 3317.41 2373.42 3319.06L2373.12 3319.13C2365.28 3321.04 2357.38 3316.23 2355.48 3308.39C2353.69 3301.07 2357.83 3293.68 2364.75 3291.18Z" fill="#650000"/>
<path d="M2522 3461.32H2352.2C2318.04 3461.32 2289.99 3435.02 2288.34 3401.44C2285.88 3351.26 2313.19 3309.68 2359.6 3292.91C2367.2 3290.16 2375.55 3294.09 2378.29 3301.68C2381.03 3309.26 2377.1 3317.62 2369.52 3320.36C2335.62 3332.61 2315.69 3363.13 2317.5 3400.01C2318.38 3418.02 2333.63 3432.13 2352.2 3432.13H2522C2541.86 3432.13 2558.02 3415.97 2558.02 3396.11V3107.08C2558.02 3099.01 2564.55 3092.48 2572.62 3092.48C2580.68 3092.48 2587.21 3099.01 2587.21 3107.08V3396.11C2587.21 3432.06 2557.96 3461.32 2522 3461.32Z" fill="#650000"/>
<path d="M1701.23 3296.87C1693.98 3296.87 1687.69 3291.47 1686.77 3284.09L1667.83 3132.47C1666.82 3124.47 1672.5 3117.18 1680.5 3116.18C1688.45 3115.18 1695.79 3120.85 1696.79 3128.85L1715.74 3280.47C1716.74 3288.47 1711.06 3295.76 1703.06 3296.76C1702.45 3296.84 1701.84 3296.87 1701.23 3296.87Z" fill="#650000"/>
<g opacity="0.3">
<path d="M3146.87 2072.14C3146.87 2072.14 3046.06 2257.81 2874.28 2300.16L2843.14 2235.3L3128.32 2038.42L3146.87 2072.14Z" fill="#650000"/>
</g>
<g opacity="0.3">
<path d="M807.191 1820.05C748.891 1813.25 701.441 1747.7 690.141 1662.15L693.341 1659.6C773.691 1805.15 856.691 1794.75 941.841 1653.35C941.841 1653.35 946.991 1784.8 807.191 1820.05Z" fill="#792937"/>
<path d="M807.357 1822.59L806.903 1822.53C748.241 1815.69 699.208 1749.87 687.665 1662.48L687.484 1661.08L694.1 1655.8L695.531 1658.39C732.953 1726.18 771.766 1760.92 810.897 1761.66C811.317 1761.67 811.747 1761.67 812.171 1761.67C852.996 1761.67 895.897 1724.81 939.7 1652.06L944.016 1644.9L944.343 1653.25C944.392 1654.59 947.946 1787.13 807.8 1822.47L807.357 1822.59ZM692.914 1663.97C704.633 1747.79 751.317 1810.7 807.025 1817.51C921.405 1788.43 937.015 1692.87 939.061 1662.67C895.96 1731.7 853.304 1766.67 812.166 1766.67C811.712 1766.67 811.258 1766.67 810.804 1766.66C770.389 1765.9 730.736 1731.35 692.914 1663.97Z" fill="#650000"/>
</g>
<path d="M1609.24 1981.4C1675.22 1981.4 1728.71 1903.73 1728.71 1807.92C1728.71 1712.11 1675.22 1634.43 1609.24 1634.43C1543.26 1634.43 1489.77 1712.11 1489.77 1807.92C1489.77 1903.73 1543.26 1981.4 1609.24 1981.4Z" fill="white"/>
<path d="M1609.24 1984.42C1541.7 1984.42 1486.76 1905.24 1486.76 1807.92C1486.76 1710.6 1541.7 1631.42 1609.24 1631.42C1676.78 1631.42 1731.73 1710.6 1731.73 1807.92C1731.73 1905.24 1676.78 1984.42 1609.24 1984.42ZM1609.24 1637.45C1545.02 1637.45 1492.78 1713.92 1492.78 1807.92C1492.78 1901.92 1545.02 1978.39 1609.24 1978.39C1673.46 1978.39 1725.7 1901.92 1725.7 1807.92C1725.7 1713.92 1673.46 1637.45 1609.24 1637.45Z" fill="#650000"/>
<path d="M1631.46 1951.87C1685.18 1951.87 1728.72 1888.64 1728.72 1810.65C1728.72 1732.66 1685.18 1669.43 1631.46 1669.43C1577.75 1669.43 1534.21 1732.66 1534.21 1810.65C1534.21 1888.64 1577.75 1951.87 1631.46 1951.87Z" fill="#650000"/>
<path d="M1609.25 1634.43C1675.23 1634.43 1728.72 1712.11 1728.72 1807.92C1728.72 1903.73 1675.23 1981.4 1609.25 1981.4C1543.26 1981.4 1489.77 1903.73 1489.77 1807.92C1489.77 1712.11 1543.26 1634.43 1609.25 1634.43ZM1609.25 1604.43C1567.17 1604.43 1528.39 1627.09 1500.06 1668.23C1474.08 1705.95 1459.77 1755.56 1459.77 1807.92C1459.77 1860.27 1474.08 1909.88 1500.06 1947.61C1528.39 1988.75 1567.17 2011.4 1609.25 2011.4C1651.33 2011.4 1690.1 1988.75 1718.44 1947.61C1744.41 1909.88 1758.72 1860.27 1758.72 1807.92C1758.72 1755.56 1744.41 1705.95 1718.44 1668.23C1690.1 1627.09 1651.33 1604.43 1609.25 1604.43Z" fill="#650000"/>
<path d="M1572.1 1807.92C1596.28 1807.92 1615.88 1788.32 1615.88 1764.14C1615.88 1739.97 1596.28 1720.37 1572.1 1720.37C1547.93 1720.37 1528.33 1739.97 1528.33 1764.14C1528.33 1788.32 1547.93 1807.92 1572.1 1807.92Z" fill="white"/>
</g>
<defs>
<clipPath id="clip0_1767_2804">
<rect width="4000" height="4000" rx="2000" fill="white"/>
</clipPath>
</defs>
</svg>
